SplineFontDB: 3.0
FontName: NimbusSanL-ReguCond
FullName: Nimbus Sans L Regular Condensed
FamilyName: Nimbus Sans L
Weight: Regular
Copyright: Copyright (URW)++,Copyright 2006 by (URW)++ Design & Development
Version: 1.10
ItalicAngle: 0
UnderlinePosition: -109
UnderlineWidth: 55
Ascent: 800
Descent: 200
LayerCount: 2
Layer: 0 0 "Back"  1
Layer: 1 0 "Fore"  0
UniqueID: 5082800
OS2Version: 0
OS2_WeightWidthSlopeOnly: 0
OS2_UseTypoMetrics: 0
CreationTime: 1464335511
ModificationTime: 1464335511
OS2TypoAscent: 0
OS2TypoAOffset: 1
OS2TypoDescent: 0
OS2TypoDOffset: 1
OS2TypoLinegap: 0
OS2WinAscent: 0
OS2WinAOffset: 1
OS2WinDescent: 0
OS2WinDOffset: 1
HheadAscent: 0
HheadAOffset: 1
HheadDescent: 0
HheadDOffset: 1
OS2Vendor: 'PfEd'
DEI: 91125
Encoding: UnicodeBmp
UnicodeInterp: none
NameList: Adobe Glyph List
DisplaySize: -24
AntiAlias: 1
FitToEm: 1
BeginPrivate: 7
BlueValues 31 [-23 0 524 544 729 749 686 709]
BlueScale 8 0.039625
StdHW 4 [78]
StdVW 4 [70]
StemSnapH 7 [78 83]
StemSnapV 7 [70 78]
ForceBold 5 false
EndPrivate
BeginChars: 65537 243

StartChar: A
Encoding: 65 65 1
Width: 547
Flags: MW
HStem: 0 20 219 78<178 368 178 389 158 368> 709 20<227 326 326 326>
LayerCount: 2
Fore
SplineSet
389 219 m 1
 158 219 l 1
 95 0 l 1
 14 0 l 1
 227 729 l 1
 326 729 l 1
 535 0 l 1
 451 0 l 1
 389 219 l 1
368 297 m 1
 276 629 l 1
 178 297 l 1
 368 297 l 1
EndSplineSet
EndChar

StartChar: B
Encoding: 66 66 2
Width: 547
Flags: W
HStem: 0 82<65 327 141 327 327 334> 333 82<141 289 289 310.5 141 327 141 289> 647 82<141 289 141 141>
VStem: 65 76<82 82 82 333 415 647> 409 76<512 550> 435 76<190 224.5>
LayerCount: 2
Fore
SplineSet
65 0 m 1xf4
 65 729 l 1
 308 729 l 2
 416 729 485 657 485 544 c 0xf8
 485 470 456 416 402 385 c 1
 478 349 511 295 511 208 c 0
 511 151 495 101 465 61 c 0
 434 20 391 0 334 0 c 2
 65 0 l 1xf4
141 415 m 1
 289 415 l 2
 332 415 356 422 375 441 c 1
 397 461 409 493 409 531 c 0
 409 569 397 601 375 621 c 1
 356 640 332 647 289 647 c 2
 141 647 l 1
 141 415 l 1
141 82 m 1
 327 82 l 2
 364 82 389 93 407 117 c 0
 425 140 435 173 435 207 c 0xf4
 435 242 425 274 407 298 c 0
 389 322 364 333 327 333 c 2
 141 333 l 1
 141 82 l 1
EndSplineSet
EndChar

StartChar: C
Encoding: 67 67 3
Width: 592
Flags: MW
HStem: -23 82<269.5 343 250.5 382> 659 82<271.5 327>
VStem: 39 76<296 415>
LayerCount: 2
Fore
SplineSet
543 503 m 1
 464 503 l 1
 455 559 443 590 419 616 c 0
 394 643 350 659 304 659 c 0
 187 659 115 544 115 357 c 0
 115 175 191 59 310 59 c 0
 376 59 426 94 451 158 c 0
 462 186 470 219 476 266 c 1
 555 266 l 1
 536 72 455 -23 309 -23 c 0
 230 -23 170 5 125 62 c 1
 69 135 39 236 39 356 c 0
 39 474 68 576 122 651 c 1
 166 710 231 741 312 741 c 0
 444 741 518 664 543 503 c 1
EndSplineSet
EndChar

StartChar: D
Encoding: 68 68 4
Width: 592
Flags: MW
HStem: 0 82<73 290 149 290 290 303> 647 82<149 290 149 149>
VStem: 73 76<82 82 82 647> 471 76<272.5 456>
LayerCount: 2
Fore
SplineSet
73 0 m 1
 73 729 l 1
 303 729 l 2
 454 729 547 590 547 365 c 0
 547 139 454 0 303 0 c 2
 73 0 l 1
149 82 m 1
 290 82 l 2
 408 82 471 181 471 364 c 0
 471 548 408 647 290 647 c 2
 149 647 l 1
 149 82 l 1
EndSplineSet
EndChar

StartChar: E
Encoding: 69 69 5
Width: 547
Flags: MW
HStem: 0 82<150 503 150 503 74 503> 332 82<150 476 150 476> 647 82<150 488 150 150>
VStem: 74 76<82 332 414 647>
LayerCount: 2
Fore
SplineSet
150 332 m 1
 150 82 l 1
 503 82 l 1
 503 0 l 1
 74 0 l 1
 74 729 l 1
 488 729 l 1
 488 647 l 1
 150 647 l 1
 150 414 l 1
 476 414 l 1
 476 332 l 1
 150 332 l 1
EndSplineSet
EndChar

StartChar: F
Encoding: 70 70 6
Width: 501
Flags: MW
HStem: 0 20 332 82<150 436 150 436> 647 82<150 475 150 150>
VStem: 74 76<0 332 414 647>
LayerCount: 2
Fore
SplineSet
150 332 m 1
 150 0 l 1
 74 0 l 1
 74 729 l 1
 475 729 l 1
 475 647 l 1
 150 647 l 1
 150 414 l 1
 436 414 l 1
 436 332 l 1
 150 332 l 1
EndSplineSet
EndChar

StartChar: G
Encoding: 71 71 7
Width: 638
Flags: MW
HStem: -23 82<295.5 350.5> 303 82<332 514 332 581> 659 82<286.5 368>
VStem: 36 76<318 422.5>
LayerCount: 2
Fore
SplineSet
581 385 m 1
 581 -4 l 1
 533 -4 l 1
 514 93 l 1
 455 13 391 -23 310 -23 c 0
 148 -23 36 133 36 357 c 0
 36 488 74 598 144 671 c 0
 189 717 250 741 323 741 c 0
 460 741 552 655 573 508 c 1
 495 508 l 1
 479 602 414 659 322 659 c 0
 196 659 112 541 112 363 c 0
 112 273 135 188 175 133 c 0
 209 87 265 59 326 59 c 0
 435 59 514 153 514 283 c 2
 514 303 l 1
 332 303 l 1
 332 385 l 1
 581 385 l 1
EndSplineSet
EndChar

StartChar: H
Encoding: 72 72 8
Width: 592
Flags: W
HStem: 0 20 332 82<145 452 145 145> 709 20<68 144 144 144 452 528 528 528>
VStem: 68 76<414 729 414 729 414 729> 68 77<0 332 0 729> 452 76<0 332 332 332 414 729 0 729>
LayerCount: 2
Fore
SplineSet
452 332 m 1xf4
 145 332 l 1
 145 0 l 1
 68 0 l 1
 68 729 l 1xec
 144 729 l 1
 144 414 l 1
 452 414 l 1
 452 729 l 1
 528 729 l 1
 528 0 l 1
 452 0 l 1
 452 332 l 1xf4
EndSplineSet
EndChar

StartChar: I
Encoding: 73 73 9
Width: 228
Flags: MW
HStem: 0 20 709 20<82 159 159 159>
VStem: 82 77<0 729 0 729>
LayerCount: 2
Fore
SplineSet
159 729 m 1
 159 0 l 1
 82 0 l 1
 82 729 l 1
 159 729 l 1
EndSplineSet
EndChar

StartChar: J
Encoding: 74 74 10
Width: 410
Flags: MW
HStem: -23 78<152.5 196.5 152.5 232> 709 20<273 349 349 349>
VStem: 14 78<170 187 187 234 144.5 234> 273 76<216 729>
LayerCount: 2
Fore
SplineSet
273 729 m 1
 349 729 l 1
 349 182 l 2
 349 55 284 -23 180 -23 c 0
 78 -23 14 52 14 170 c 2
 14 234 l 1
 92 234 l 1
 92 187 l 2
 92 102 124 55 181 55 c 0
 212 55 240 73 254 100 c 0
 268 127 273 157 273 216 c 2
 273 729 l 1
EndSplineSet
EndChar

StartChar: K
Encoding: 75 75 11
Width: 547
Flags: MW
HStem: 0 20 709 20<65 141 141 141 439 537 537 537>
VStem: 65 76<0 255 360 729>
LayerCount: 2
Fore
SplineSet
141 255 m 1
 141 0 l 1
 65 0 l 1
 65 729 l 1
 141 729 l 1
 141 360 l 1
 439 729 l 1
 537 729 l 1
 293 432 l 1
 540 0 l 1
 449 0 l 1
 239 374 l 1
 141 255 l 1
EndSplineSet
EndChar

StartChar: L
Encoding: 76 76 12
Width: 456
Flags: MW
HStem: 0 82<142 437 142 437 66 437> 709 20<66 142 142 142>
VStem: 66 76<82 729 82 729 82 729>
LayerCount: 2
Fore
SplineSet
142 729 m 1
 142 82 l 1
 437 82 l 1
 437 0 l 1
 66 0 l 1
 66 729 l 1
 142 729 l 1
EndSplineSet
EndChar

StartChar: M
Encoding: 77 77 13
Width: 683
Flags: MW
HStem: 0 20 709 20<61 166 166 166 518 624 624 624>
VStem: 61 72<0 611 0 729> 552 72<0 611 611 611>
LayerCount: 2
Fore
SplineSet
383 0 m 1
 303 0 l 1
 133 611 l 1
 133 0 l 1
 61 0 l 1
 61 729 l 1
 166 729 l 1
 344 94 l 1
 518 729 l 1
 624 729 l 1
 624 0 l 1
 552 0 l 1
 552 611 l 1
 383 0 l 1
EndSplineSet
EndChar

StartChar: N
Encoding: 78 78 14
Width: 592
Flags: MW
HStem: 0 20 709 20<62 145 145 145 457 529 529 529>
VStem: 62 72<0 591 0 729> 457 72<133 729 0 729>
LayerCount: 2
Fore
SplineSet
529 729 m 1
 529 0 l 1
 443 0 l 1
 134 591 l 1
 134 0 l 1
 62 0 l 1
 62 729 l 1
 145 729 l 1
 457 133 l 1
 457 729 l 1
 529 729 l 1
EndSplineSet
EndChar

StartChar: O
Encoding: 79 79 15
Width: 638
Flags: MW
HStem: -23 82<256 383 256 405.5> 659 82<255.5 384>
VStem: 31 76<269 449 269 473> 532 76<267 447.5>
LayerCount: 2
Fore
SplineSet
319 741 m 0
 495 741 608 589 608 353 c 0
 608 130 491 -23 320 -23 c 0
 147 -23 31 131 31 359 c 0
 31 587 147 741 319 741 c 0
319 659 m 0
 192 659 107 539 107 359 c 0
 107 179 192 59 320 59 c 0
 446 59 532 179 532 355 c 0
 532 540 449 659 319 659 c 0
EndSplineSet
EndChar

StartChar: P
Encoding: 80 80 16
Width: 547
Flags: MW
HStem: 0 20 309 82<151 310 151 310 310 338> 647 82<151 310 151 151>
VStem: 75 76<0 309 391 647> 426 80<481.5 559.5>
LayerCount: 2
Fore
SplineSet
151 309 m 1
 151 0 l 1
 75 0 l 1
 75 729 l 1
 322 729 l 2
 440 729 506 652 506 515 c 0
 506 448 490 401 454 361 c 0
 423 326 386 309 338 309 c 2
 151 309 l 1
151 391 m 1
 310 391 l 2
 384 391 426 438 426 519 c 0
 426 600 384 647 310 647 c 2
 151 647 l 1
 151 391 l 1
EndSplineSet
EndChar

StartChar: Q
Encoding: 81 81 17
Width: 638
Flags: MW
HStem: -23 82<255.5 337 255.5 349.5> 659 82<256 383.5>
VStem: 31 76<269 449 269 473.5> 532 76<312.5 449.5>
LayerCount: 2
Fore
SplineSet
601 -1 m 1
 562 -59 l 1
 476 29 l 1
 428 -7 379 -23 320 -23 c 0
 147 -23 31 131 31 359 c 0
 31 588 147 741 320 741 c 0
 492 741 608 588 608 361 c 0
 608 244 581 152 524 76 c 1
 601 -1 l 1
394 205 m 1
 467 132 l 1
 512 193 532 265 532 360 c 0
 532 539 447 659 320 659 c 0
 192 659 107 539 107 359 c 0
 107 179 192 59 319 59 c 0
 355 59 382 67 418 87 c 1
 356 149 l 1
 394 205 l 1
EndSplineSet
EndChar

StartChar: R
Encoding: 82 82 18
Width: 592
Flags: MW
HStem: 0 20 314 82<152 336 152 336 336 349> 647 82<152 336 152 152>
VStem: 76 76<0 314 396 647> 453 80<491.5 566>
LayerCount: 2
Fore
SplineSet
152 314 m 1
 152 0 l 1
 76 0 l 1
 76 729 l 1
 351 729 l 2
 470 729 533 661 533 533 c 0
 533 450 506 401 439 360 c 1
 504 326 519 290 520 170 c 0
 521 73 528 47 556 23 c 1
 556 0 l 1
 464 0 l 1
 453 29 446 77 446 119 c 2
 447 184 l 1
 447 275 417 314 349 314 c 2
 152 314 l 1
152 396 m 1
 336 396 l 2
 418 396 453 433 453 522 c 0
 453 610 418 647 336 647 c 2
 152 647 l 1
 152 396 l 1
EndSplineSet
EndChar

StartChar: S
Encoding: 83 83 19
Width: 547
Flags: MW
HStem: -23 82<228.5 305 226.5 311.5> 663 78<227 313 203.5 314.5>
VStem: 57 76<512.5 577 512.5 594> 433 76<171.5 219>
LayerCount: 2
Fore
SplineSet
488 515 m 1
 416 515 l 1
 414 611 362 663 267 663 c 0
 187 663 133 614 133 540 c 0
 133 485 160 456 232 432 c 2
 381 383 l 2
 463 356 509 290 509 200 c 0
 509 137 483 72 443 33 c 0
 405 -3 347 -23 276 -23 c 0
 181 -23 110 15 70 88 c 0
 50 125 40 171 39 232 c 1
 111 232 l 1
 110 121 172 59 281 59 c 0
 329 59 366 70 390 90 c 0
 415 111 433 153 433 190 c 0
 433 248 399 285 323 309 c 2
 174 357 l 2
 95 382 57 438 57 528 c 0
 57 660 138 741 269 741 c 0
 357 741 425 706 461 641 c 0
 475 615 489 558 489 529 c 0
 489 522 489 521 488 515 c 1
EndSplineSet
EndChar

StartChar: T
Encoding: 84 84 20
Width: 501
Flags: MW
HStem: 0 20 647 82<17 214 17 486 290 486 290 290>
VStem: 214 76<0 647 0 647>
LayerCount: 2
Fore
SplineSet
290 647 m 1
 290 0 l 1
 214 0 l 1
 214 647 l 1
 17 647 l 1
 17 729 l 1
 486 729 l 1
 486 647 l 1
 290 647 l 1
EndSplineSet
EndChar

StartChar: U
Encoding: 85 85 21
Width: 592
Flags: MW
HStem: -23 82<250.5 347 250.5 369> 709 20<70 146 146 146 453 529 529 529>
VStem: 70 76<217 729> 453 76<217 729>
LayerCount: 2
Fore
SplineSet
453 729 m 1
 529 729 l 1
 529 217 l 2
 529 71 439 -23 299 -23 c 0
 157 -23 70 68 70 217 c 2
 70 729 l 1
 146 729 l 1
 146 217 l 2
 146 117 202 59 299 59 c 0
 395 59 453 119 453 217 c 2
 453 729 l 1
EndSplineSet
EndChar

StartChar: V
Encoding: 86 86 22
Width: 547
Flags: MW
HStem: 0 20 709 20<25 107 107 107 448 529 529 529>
LayerCount: 2
Fore
SplineSet
322 0 m 1
 240 0 l 1
 25 729 l 1
 107 729 l 1
 283 112 l 1
 448 729 l 1
 529 729 l 1
 322 0 l 1
EndSplineSet
EndChar

StartChar: W
Encoding: 87 87 23
Width: 774
Flags: MW
HStem: 0 20 709 20<18 103 103 103 349 431 431 431 677 762 762 762>
LayerCount: 2
Fore
SplineSet
610 0 m 1
 526 0 l 1
 388 599 l 1
 255 0 l 1
 171 0 l 1
 18 729 l 1
 103 729 l 1
 216 137 l 1
 349 729 l 1
 431 729 l 1
 566 137 l 1
 677 729 l 1
 762 729 l 1
 610 0 l 1
EndSplineSet
EndChar

StartChar: X
Encoding: 88 88 24
Width: 547
Flags: MW
HStem: 0 20 709 20<31 124 124 124 431 522 522 522>
LayerCount: 2
Fore
SplineSet
320 374 m 1
 532 0 l 1
 438 0 l 1
 275 304 l 1
 110 0 l 1
 18 0 l 1
 230 374 l 1
 31 729 l 1
 124 729 l 1
 277 443 l 1
 431 729 l 1
 522 729 l 1
 320 374 l 1
EndSplineSet
EndChar

StartChar: Y
Encoding: 89 89 25
Width: 547
Flags: MW
HStem: 0 20 709 20<11 105 105 105 450 542 542 542>
VStem: 241 76<0 286 0 286>
LayerCount: 2
Fore
SplineSet
317 286 m 1
 317 0 l 1
 241 0 l 1
 241 286 l 1
 11 729 l 1
 105 729 l 1
 280 374 l 1
 450 729 l 1
 542 729 l 1
 317 286 l 1
EndSplineSet
EndChar

StartChar: Z
Encoding: 90 90 26
Width: 501
Flags: MW
HStem: 0 82<119 478 23 23> 647 82<46 382 46 476>
LayerCount: 2
Fore
SplineSet
476 729 m 1
 476 645 l 1
 119 82 l 1
 478 82 l 1
 478 0 l 1
 23 0 l 1
 23 82 l 1
 382 647 l 1
 46 647 l 1
 46 729 l 1
 476 729 l 1
EndSplineSet
EndChar

StartChar: AE
Encoding: 198 198 27
Width: 820
Flags: MW
HStem: 0 82<384 779 460 779 460 779> 214 82<189 384 189 384 163 384> 332 82<460 749 460 749> 647 82<302 384 302 302 460 764 460 460>
VStem: 384 76<82 214 214 214 296 332 414 647>
LayerCount: 2
Fore
SplineSet
384 214 m 1
 163 214 l 1
 93 0 l 1
 9 0 l 1
 255 729 l 1
 764 729 l 1
 764 647 l 1
 460 647 l 1
 460 414 l 1
 749 414 l 1
 749 332 l 1
 460 332 l 1
 460 82 l 1
 779 82 l 1
 779 0 l 1
 384 0 l 1
 384 214 l 1
384 296 m 1
 384 647 l 1
 302 647 l 1
 189 296 l 1
 384 296 l 1
EndSplineSet
EndChar

StartChar: OE
Encoding: 338 338 28
Width: 820
Flags: W
HStem: -20 82<224.5 312.5> 0 82<506 786 506 786 430 786> 327 82<506 775 506 775> 647 82<506 782 506 506> 659 82<250 314 250 314.5>
VStem: 35 76<262 424.5> 430 76<0 327 74 327 182 327 409 539 539 539>
LayerCount: 2
Fore
SplineSet
506 327 m 1x36
 506 82 l 1
 786 82 l 1
 786 0 l 1
 430 0 l 1x66
 430 74 l 1
 392 9 346 -20 279 -20 c 0
 127 -20 35 122 35 356 c 0
 35 493 62 593 119 663 c 0
 157 711 220 741 280 741 c 0x8e
 348 741 395 713 430 653 c 1
 430 729 l 1
 782 729 l 1
 782 647 l 1
 506 647 l 1
 506 409 l 1
 775 409 l 1
 775 327 l 1
 506 327 l 1x36
430 182 m 1x8e
 430 539 l 1
 397 621 349 659 280 659 c 0
 169 659 111 557 111 360 c 0
 111 164 169 62 280 62 c 0
 348 62 397 100 430 182 c 1x8e
EndSplineSet
EndChar

StartChar: Oslash
Encoding: 216 216 29
Width: 638
Flags: W
HStem: -23 82<289 381.5 289 404> -17 20 659 82<254.5 344.5>
VStem: 29 76<326 449.5 326 474> 530 76<268.5 396>
LayerCount: 2
Fore
SplineSet
25 19 m 1x58
 91 108 l 1
 50 179 29 263 29 360 c 0
 29 588 145 741 318 741 c 0
 393 741 455 714 507 660 c 1
 578 755 l 1
 610 719 l 1
 537 622 l 1
 582 555 606 462 606 358 c 0
 606 130 490 -23 318 -23 c 0xb8
 238 -23 175 6 120 67 c 1
 57 -17 l 1
 25 19 l 1x58
143 176 m 1
 458 595 l 1
 418 638 371 659 318 659 c 0
 191 659 105 539 105 360 c 0
 105 292 119 226 143 176 c 1
486 554 m 1
 170 133 l 1
 209 84 260 59 318 59 c 0
 445 59 530 179 530 358 c 0
 530 434 515 500 486 554 c 1
EndSplineSet
EndChar

StartChar: Adieresis
Encoding: 196 196 30
Width: 547
Flags: MW
HStem: 0 20 219 78<178 368 178 389 158 368> 709 20<227 326 326 326> 811 103<166 251 166 251 166 299 299 384>
VStem: 166 85<811 914 811 914> 299 85<811 914 811 914>
LayerCount: 2
Fore
SplineSet
389 219 m 1
 158 219 l 1
 95 0 l 1
 14 0 l 1
 227 729 l 1
 326 729 l 1
 535 0 l 1
 451 0 l 1
 389 219 l 1
368 297 m 1
 276 629 l 1
 178 297 l 1
 368 297 l 1
251 914 m 1
 251 811 l 1
 166 811 l 1
 166 914 l 1
 251 914 l 1
384 914 m 1
 384 811 l 1
 299 811 l 1
 299 914 l 1
 384 914 l 1
EndSplineSet
EndChar

StartChar: Aacute
Encoding: 193 193 31
Width: 547
Flags: MW
HStem: 0 20 219 78<178 368 178 389 158 368> 709 20<227 326 326 326>
LayerCount: 2
Fore
SplineSet
389 219 m 1
 158 219 l 1
 95 0 l 1
 14 0 l 1
 227 729 l 1
 326 729 l 1
 535 0 l 1
 451 0 l 1
 389 219 l 1
368 297 m 1
 276 629 l 1
 178 297 l 1
 368 297 l 1
304 939 m 1
 396 939 l 1
 274 791 l 1
 225 791 l 1
 304 939 l 1
EndSplineSet
EndChar

StartChar: Agrave
Encoding: 192 192 32
Width: 547
Flags: MW
HStem: 0 20 219 78<178 368 178 389 158 368> 709 20<227 326 326 326>
LayerCount: 2
Fore
SplineSet
389 219 m 1
 158 219 l 1
 95 0 l 1
 14 0 l 1
 227 729 l 1
 326 729 l 1
 535 0 l 1
 451 0 l 1
 389 219 l 1
368 297 m 1
 276 629 l 1
 178 297 l 1
 368 297 l 1
249 939 m 1
 328 791 l 1
 278 791 l 1
 156 939 l 1
 249 939 l 1
EndSplineSet
EndChar

StartChar: Acircumflex
Encoding: 194 194 33
Width: 547
Flags: MW
HStem: 0 20 219 78<178 368 178 389 158 368> 709 20<227 326 326 326>
LayerCount: 2
Fore
SplineSet
389 219 m 1
 158 219 l 1
 95 0 l 1
 14 0 l 1
 227 729 l 1
 326 729 l 1
 535 0 l 1
 451 0 l 1
 389 219 l 1
368 297 m 1
 276 629 l 1
 178 297 l 1
 368 297 l 1
236 940 m 1
 313 940 l 1
 392 790 l 1
 341 790 l 1
 275 886 l 1
 210 790 l 1
 157 790 l 1
 236 940 l 1
EndSplineSet
EndChar

StartChar: Atilde
Encoding: 195 195 34
Width: 547
Flags: W
HStem: 0 20 219 78<178 368 178 389 158 368> 709 20<227 326 326 326> 812 68<322.5 333.5 320 350.5> 849 67<214 225 198 226>
LayerCount: 2
Fore
SplineSet
389 219 m 1xf0
 158 219 l 1
 95 0 l 1
 14 0 l 1
 227 729 l 1
 326 729 l 1
 535 0 l 1
 451 0 l 1
 389 219 l 1xf0
368 297 m 1
 276 629 l 1
 178 297 l 1
 368 297 l 1
356 916 m 1
 403 916 l 1
 396 847 371 812 330 812 c 0x10
 315 812 309 814 261 837 c 0
 239 847 232 849 220 849 c 0
 208 849 199 838 193 813 c 1
 146 813 l 1
 156 880 180 916 216 916 c 0x08
 234 916 239 914 274 897 c 1
 294 886 314 880 326 880 c 0
 341 880 350 891 356 916 c 1
EndSplineSet
EndChar

StartChar: Aring
Encoding: 197 197 35
Width: 547
Flags: MW
HStem: 0 20 219 78<178 368 178 389 158 368> 709 20<227 326 326 326> 778 44<264.5 285 264.5 294.5> 909 44<264 286>
VStem: 203 36<853.5 878.5 853.5 890.5> 311 36<853 878.5>
LayerCount: 2
Fore
SplineSet
389 219 m 1
 158 219 l 1
 95 0 l 1
 14 0 l 1
 227 729 l 1
 326 729 l 1
 535 0 l 1
 451 0 l 1
 389 219 l 1
368 297 m 1
 276 629 l 1
 178 297 l 1
 368 297 l 1
275 953 m 0
 316 953 347 915 347 865 c 0
 347 818 314 778 275 778 c 0
 235 778 203 817 203 866 c 0
 203 915 234 953 275 953 c 0
275 909 m 0
 253 909 239 891 239 866 c 0
 239 841 254 822 275 822 c 0
 295 822 311 841 311 865 c 0
 311 892 297 909 275 909 c 0
EndSplineSet
EndChar

StartChar: Ccedilla
Encoding: 199 199 36
Width: 592
Flags: MW
HStem: -214 41<271 295 271 318> -91 149<283.5 300.5> 659 82<271.5 327>
VStem: 39 76<287 414.5> 325 62<-141.5 -116>
LayerCount: 2
Fore
SplineSet
311 -23 m 1
 300 -56 l 1
 310 -54 315 -54 322 -54 c 0
 364 -54 387 -78 387 -121 c 0
 387 -179 349 -214 287 -214 c 0
 255 -214 235 -208 184 -181 c 1
 201 -140 l 1
 209 -144 l 1
 247 -168 260 -173 282 -173 c 0
 308 -173 325 -155 325 -128 c 0
 325 -104 313 -91 288 -91 c 0
 279 -91 273 -93 263 -99 c 1
 253 -92 l 1
 279 -23 l 1
 214 -11 187 1 151 35 c 0
 80 100 39 219 39 355 c 0
 39 474 68 576 122 651 c 1
 166 710 231 741 312 741 c 0
 444 741 518 664 543 503 c 1
 464 503 l 1
 455 559 443 590 419 616 c 0
 394 643 350 659 304 659 c 0
 187 659 115 544 115 357 c 0
 115 175 191 58 310 58 c 0
 376 58 426 93 451 157 c 0
 462 185 470 218 476 266 c 1
 555 266 l 1
 537 74 454 -23 311 -23 c 1
EndSplineSet
EndChar

StartChar: Eth
Encoding: 208 208 37
Width: 592
Flags: MW
HStem: 0 82<149 290 290 304 73 290> 339 67<16 73 16 73 149 289> 647 82<149 290 149 149>
VStem: 73 76<82 339 82 339 82 339 406 647> 470 76<272 457.5>
LayerCount: 2
Fore
SplineSet
73 339 m 1
 16 339 l 1
 16 406 l 1
 73 406 l 1
 73 729 l 1
 304 729 l 2
 455 729 546 592 546 365 c 0
 546 137 455 0 304 0 c 2
 73 0 l 1
 73 339 l 1
149 339 m 1
 149 82 l 1
 290 82 l 2
 408 82 470 179 470 365 c 0
 470 550 409 647 290 647 c 2
 149 647 l 1
 149 406 l 1
 289 406 l 1
 289 339 l 1
 149 339 l 1
EndSplineSet
EndChar

StartChar: Edieresis
Encoding: 203 203 38
Width: 547
Flags: MW
HStem: 0 82<150 503 150 503 74 503> 332 82<150 476 150 476> 647 82<150 488 150 150> 811 103<173 258 173 258 173 307 307 392>
VStem: 74 76<82 332 414 647> 173 85<811 914 811 914> 307 85<811 914 811 914>
LayerCount: 2
Fore
SplineSet
150 332 m 1
 150 82 l 1
 503 82 l 1
 503 0 l 1
 74 0 l 1
 74 729 l 1
 488 729 l 1
 488 647 l 1
 150 647 l 1
 150 414 l 1
 476 414 l 1
 476 332 l 1
 150 332 l 1
258 914 m 1
 258 811 l 1
 173 811 l 1
 173 914 l 1
 258 914 l 1
392 914 m 1
 392 811 l 1
 307 811 l 1
 307 914 l 1
 392 914 l 1
EndSplineSet
EndChar

StartChar: Eacute
Encoding: 201 201 39
Width: 547
Flags: MW
HStem: 0 82<150 503 150 503 74 503> 332 82<150 476 150 476> 647 82<150 488 150 150>
VStem: 74 76<82 332 414 647>
LayerCount: 2
Fore
SplineSet
150 332 m 1
 150 82 l 1
 503 82 l 1
 503 0 l 1
 74 0 l 1
 74 729 l 1
 488 729 l 1
 488 647 l 1
 150 647 l 1
 150 414 l 1
 476 414 l 1
 476 332 l 1
 150 332 l 1
301 939 m 1
 393 939 l 1
 271 791 l 1
 222 791 l 1
 301 939 l 1
EndSplineSet
EndChar

StartChar: Egrave
Encoding: 200 200 40
Width: 547
Flags: MW
HStem: 0 82<150 503 150 503 74 503> 332 82<150 476 150 476> 647 82<150 488 150 150>
VStem: 74 76<82 332 414 647>
LayerCount: 2
Fore
SplineSet
150 332 m 1
 150 82 l 1
 503 82 l 1
 503 0 l 1
 74 0 l 1
 74 729 l 1
 488 729 l 1
 488 647 l 1
 150 647 l 1
 150 414 l 1
 476 414 l 1
 476 332 l 1
 150 332 l 1
262 939 m 1
 341 791 l 1
 292 791 l 1
 170 939 l 1
 262 939 l 1
EndSplineSet
EndChar

StartChar: Ecircumflex
Encoding: 202 202 41
Width: 547
Flags: MW
HStem: 0 82<150 503 150 503 74 503> 332 82<150 476 150 476> 647 82<150 488 150 150>
VStem: 74 76<82 332 414 647>
LayerCount: 2
Fore
SplineSet
150 332 m 1
 150 82 l 1
 503 82 l 1
 503 0 l 1
 74 0 l 1
 74 729 l 1
 488 729 l 1
 488 647 l 1
 150 647 l 1
 150 414 l 1
 476 414 l 1
 476 332 l 1
 150 332 l 1
244 940 m 1
 322 940 l 1
 401 790 l 1
 349 790 l 1
 283 886 l 1
 218 790 l 1
 165 790 l 1
 244 940 l 1
EndSplineSet
EndChar

StartChar: Idieresis
Encoding: 207 207 42
Width: 228
Flags: W
HStem: 0 20 709 20<82 158 158 158> 804 103<7 92 7 92 7 140 140 225>
VStem: 7 85<804 907 804 907> 82 76<0 729 0 729> 140 85<804 907 804 907>
LayerCount: 2
Fore
SplineSet
158 729 m 1xe8
 158 0 l 1
 82 0 l 1
 82 729 l 1
 158 729 l 1xe8
92 907 m 1xf4
 92 804 l 1
 7 804 l 1
 7 907 l 1
 92 907 l 1xf4
225 907 m 1
 225 804 l 1
 140 804 l 1
 140 907 l 1
 225 907 l 1
EndSplineSet
EndChar

StartChar: Iacute
Encoding: 205 205 43
Width: 228
Flags: MW
HStem: 0 20 709 20<82 158 158 158>
VStem: 82 76<0 729 0 729>
LayerCount: 2
Fore
SplineSet
158 729 m 1
 158 0 l 1
 82 0 l 1
 82 729 l 1
 158 729 l 1
137 939 m 1
 229 939 l 1
 107 791 l 1
 58 791 l 1
 137 939 l 1
EndSplineSet
EndChar

StartChar: Igrave
Encoding: 204 204 44
Width: 228
Flags: MW
HStem: 0 20 709 20<82 158 158 158>
VStem: 82 76<0 729 0 729>
LayerCount: 2
Fore
SplineSet
158 729 m 1
 158 0 l 1
 82 0 l 1
 82 729 l 1
 158 729 l 1
93 939 m 1
 172 791 l 1
 123 791 l 1
 1 939 l 1
 93 939 l 1
EndSplineSet
EndChar

StartChar: Icircumflex
Encoding: 206 206 45
Width: 228
Flags: MW
HStem: 0 20 709 20<82 158 158 158>
VStem: 82 76<0 729 0 729>
LayerCount: 2
Fore
SplineSet
158 729 m 1
 158 0 l 1
 82 0 l 1
 82 729 l 1
 158 729 l 1
78 940 m 1
 155 940 l 1
 234 790 l 1
 182 790 l 1
 116 886 l 1
 52 790 l 1
 -1 790 l 1
 78 940 l 1
EndSplineSet
EndChar

StartChar: Lslash
Encoding: 321 321 46
Width: 456
Flags: MW
HStem: 0 82<142 453 142 453 66 453> 709 20<66 142 142 142>
VStem: 66 76<82 280 280 280 406 729>
LayerCount: 2
Fore
SplineSet
142 406 m 1
 282 527 l 1
 282 451 l 1
 142 329 l 1
 142 82 l 1
 453 82 l 1
 453 0 l 1
 66 0 l 1
 66 280 l 1
 0 223 l 1
 0 300 l 1
 66 356 l 1
 66 729 l 1
 142 729 l 1
 142 406 l 1
EndSplineSet
EndChar

StartChar: Ntilde
Encoding: 209 209 47
Width: 592
Flags: W
HStem: 0 20 709 20<62 145 145 145 457 529 529 529> 812 68<349 359.5 346 377> 849 67<240.5 252 224.5 253>
VStem: 62 72<0 591 0 729> 457 72<133 729 0 729>
LayerCount: 2
Fore
SplineSet
529 729 m 1xec
 529 0 l 1
 443 0 l 1
 134 591 l 1
 134 0 l 1
 62 0 l 1
 62 729 l 1
 145 729 l 1
 457 133 l 1
 457 729 l 1
 529 729 l 1xec
383 916 m 1
 430 916 l 1
 421 846 397 812 357 812 c 0x2c
 341 812 334 814 287 837 c 0
 266 847 259 849 247 849 c 0
 234 849 225 837 220 813 c 1
 172 813 l 1
 182 880 206 916 243 916 c 0x1c
 261 916 266 914 300 897 c 0
 321 886 340 880 352 880 c 0
 367 880 376 890 383 916 c 1
EndSplineSet
EndChar

StartChar: Odieresis
Encoding: 214 214 48
Width: 638
Flags: MW
HStem: -23 82<256 383 256 405.5> 659 82<255.5 384> 811 103<211 296 211 296 211 344 344 429>
VStem: 31 76<269 449 269 473> 211 85<811 914 811 914> 344 85<811 914 811 914> 532 76<267 447.5>
LayerCount: 2
Fore
SplineSet
319 741 m 0
 495 741 608 589 608 353 c 0
 608 130 491 -23 320 -23 c 0
 147 -23 31 131 31 359 c 0
 31 587 147 741 319 741 c 0
319 659 m 0
 192 659 107 539 107 359 c 0
 107 179 192 59 320 59 c 0
 446 59 532 179 532 355 c 0
 532 540 449 659 319 659 c 0
296 914 m 1
 296 811 l 1
 211 811 l 1
 211 914 l 1
 296 914 l 1
429 914 m 1
 429 811 l 1
 344 811 l 1
 344 914 l 1
 429 914 l 1
EndSplineSet
EndChar

StartChar: Oacute
Encoding: 211 211 49
Width: 638
Flags: MW
HStem: -23 82<256 383 256 405.5> 659 82<255.5 384>
VStem: 31 76<269 449 269 473> 532 76<267 447.5>
LayerCount: 2
Fore
SplineSet
319 741 m 0
 495 741 608 589 608 353 c 0
 608 130 491 -23 320 -23 c 0
 147 -23 31 131 31 359 c 0
 31 587 147 741 319 741 c 0
319 659 m 0
 192 659 107 539 107 359 c 0
 107 179 192 59 320 59 c 0
 446 59 532 179 532 355 c 0
 532 540 449 659 319 659 c 0
343 939 m 1
 435 939 l 1
 313 791 l 1
 264 791 l 1
 343 939 l 1
EndSplineSet
EndChar

StartChar: Ograve
Encoding: 210 210 50
Width: 638
Flags: MW
HStem: -23 82<256 383 256 405.5> 659 82<255.5 384>
VStem: 31 76<269 449 269 473> 532 76<267 447.5>
LayerCount: 2
Fore
SplineSet
319 741 m 0
 495 741 608 589 608 353 c 0
 608 130 491 -23 320 -23 c 0
 147 -23 31 131 31 359 c 0
 31 587 147 741 319 741 c 0
319 659 m 0
 192 659 107 539 107 359 c 0
 107 179 192 59 320 59 c 0
 446 59 532 179 532 355 c 0
 532 540 449 659 319 659 c 0
294 939 m 1
 373 791 l 1
 323 791 l 1
 201 939 l 1
 294 939 l 1
EndSplineSet
EndChar

StartChar: Ocircumflex
Encoding: 212 212 51
Width: 638
Flags: MW
HStem: -23 82<256 383 256 405.5> 659 82<255.5 384>
VStem: 31 76<269 449 269 473> 532 76<267 447.5>
LayerCount: 2
Fore
SplineSet
319 741 m 0
 495 741 608 589 608 353 c 0
 608 130 491 -23 320 -23 c 0
 147 -23 31 131 31 359 c 0
 31 587 147 741 319 741 c 0
319 659 m 0
 192 659 107 539 107 359 c 0
 107 179 192 59 320 59 c 0
 446 59 532 179 532 355 c 0
 532 540 449 659 319 659 c 0
281 940 m 1
 358 940 l 1
 437 790 l 1
 385 790 l 1
 319 886 l 1
 255 790 l 1
 202 790 l 1
 281 940 l 1
EndSplineSet
EndChar

StartChar: Otilde
Encoding: 213 213 52
Width: 638
Flags: W
HStem: -23 82<256 383 256 405.5> 659 82<255.5 384> 812 68<370 380.5 367.5 398.5> 849 67<261.5 273 246 274>
VStem: 31 76<269 449 269 473> 532 76<267 447.5>
LayerCount: 2
Fore
SplineSet
319 741 m 0xec
 495 741 608 589 608 353 c 0
 608 130 491 -23 320 -23 c 0
 147 -23 31 131 31 359 c 0
 31 587 147 741 319 741 c 0xec
319 659 m 0
 192 659 107 539 107 359 c 0
 107 179 192 59 320 59 c 0
 446 59 532 179 532 355 c 0
 532 540 449 659 319 659 c 0
404 916 m 1
 451 916 l 1
 443 846 419 812 378 812 c 0x2c
 362 812 356 814 308 837 c 0
 286 847 280 849 268 849 c 0
 255 849 246 837 241 813 c 1
 194 813 l 1
 203 879 228 916 264 916 c 0x1c
 282 916 287 914 321 897 c 0
 342 886 362 880 373 880 c 0
 388 880 398 891 404 916 c 1
EndSplineSet
EndChar

StartChar: Scaron
Encoding: 352 352 53
Width: 547
Flags: MW
HStem: -23 82<228.5 305 226.5 311.5> 663 78<227 313 203.5 314.5>
VStem: 57 76<512.5 577 512.5 594> 433 76<171.5 219>
LayerCount: 2
Fore
SplineSet
488 515 m 1
 416 515 l 1
 414 611 362 663 267 663 c 0
 187 663 133 614 133 540 c 0
 133 485 160 456 232 432 c 2
 381 383 l 2
 463 356 509 290 509 200 c 0
 509 137 483 72 443 33 c 0
 405 -3 347 -23 276 -23 c 0
 181 -23 110 15 70 88 c 0
 50 125 40 171 39 232 c 1
 111 232 l 1
 110 121 172 59 281 59 c 0
 329 59 366 70 390 90 c 0
 415 111 433 153 433 190 c 0
 433 248 399 285 323 309 c 2
 174 357 l 2
 95 382 57 438 57 528 c 0
 57 660 138 741 269 741 c 0
 357 741 425 706 461 641 c 0
 475 615 489 558 489 529 c 0
 489 522 489 521 488 515 c 1
312 790 m 1
 234 790 l 1
 155 940 l 1
 207 940 l 1
 273 844 l 1
 338 940 l 1
 390 940 l 1
 312 790 l 1
EndSplineSet
EndChar

StartChar: Udieresis
Encoding: 220 220 54
Width: 592
Flags: MW
HStem: -23 82<251.5 346.5 251.5 369> 811 103<191 276 191 276 191 324 324 409>
VStem: 70 76<217 729> 191 85<811 914 811 914> 324 85<811 914 811 914> 453 76<217 729>
LayerCount: 2
Fore
SplineSet
453 729 m 1
 529 729 l 1
 529 217 l 2
 529 71 439 -23 299 -23 c 0
 160 -23 70 71 70 217 c 2
 70 729 l 1
 146 729 l 1
 146 217 l 2
 146 119 204 59 299 59 c 0
 394 59 453 119 453 217 c 2
 453 729 l 1
276 914 m 1
 276 811 l 1
 191 811 l 1
 191 914 l 1
 276 914 l 1
409 914 m 1
 409 811 l 1
 324 811 l 1
 324 914 l 1
 409 914 l 1
EndSplineSet
EndChar

StartChar: Uacute
Encoding: 218 218 55
Width: 592
Flags: MW
HStem: -23 82<251.5 346.5 251.5 369>
VStem: 70 76<217 729>
LayerCount: 2
Fore
SplineSet
452 729 m 1
 528 729 l 1
 529 217 l 2
 529 71 439 -23 299 -23 c 0
 160 -23 70 71 70 217 c 2
 70 729 l 1
 146 729 l 1
 146 217 l 2
 146 119 204 59 299 59 c 0
 394 59 453 119 453 217 c 2
 452 729 l 1
318 939 m 1
 410 939 l 1
 288 791 l 1
 239 791 l 1
 318 939 l 1
EndSplineSet
EndChar

StartChar: Ugrave
Encoding: 217 217 56
Width: 592
Flags: MW
HStem: -23 82<251.5 346.5 251.5 369>
VStem: 70 76<217 729> 453 76<217 729>
LayerCount: 2
Fore
SplineSet
453 729 m 1
 529 729 l 1
 529 217 l 2
 529 71 439 -23 299 -23 c 0
 160 -23 70 71 70 217 c 2
 70 729 l 1
 146 729 l 1
 146 217 l 2
 146 119 204 59 299 59 c 0
 394 59 453 119 453 217 c 2
 453 729 l 1
274 939 m 1
 353 791 l 1
 303 791 l 1
 181 939 l 1
 274 939 l 1
EndSplineSet
EndChar

StartChar: Ucircumflex
Encoding: 219 219 57
Width: 592
Flags: MW
HStem: -23 82<251.5 346.5 251.5 369>
VStem: 70 76<217 729> 453 76<217 729>
LayerCount: 2
Fore
SplineSet
453 729 m 1
 529 729 l 1
 529 217 l 2
 529 71 439 -23 299 -23 c 0
 160 -23 70 71 70 217 c 2
 70 729 l 1
 146 729 l 1
 146 217 l 2
 146 119 204 59 299 59 c 0
 394 59 453 119 453 217 c 2
 453 729 l 1
261 940 m 1
 338 940 l 1
 417 790 l 1
 365 790 l 1
 299 886 l 1
 235 790 l 1
 182 790 l 1
 261 940 l 1
EndSplineSet
EndChar

StartChar: Yacute
Encoding: 221 221 58
Width: 547
Flags: MW
HStem: 0 20 709 20<11 105 105 105 450 542 542 542>
VStem: 241 76<0 286 0 286>
LayerCount: 2
Fore
SplineSet
317 286 m 1
 317 0 l 1
 241 0 l 1
 241 286 l 1
 11 729 l 1
 105 729 l 1
 280 374 l 1
 450 729 l 1
 542 729 l 1
 317 286 l 1
300 939 m 1
 392 939 l 1
 270 791 l 1
 221 791 l 1
 300 939 l 1
EndSplineSet
EndChar

StartChar: Zcaron
Encoding: 381 381 59
Width: 501
Flags: MW
HStem: 0 82<119 478 23 23> 647 82<46 382 46 476>
LayerCount: 2
Fore
SplineSet
476 729 m 1
 476 645 l 1
 119 82 l 1
 478 82 l 1
 478 0 l 1
 23 0 l 1
 23 82 l 1
 382 647 l 1
 46 647 l 1
 46 729 l 1
 476 729 l 1
300 790 m 1
 223 790 l 1
 144 940 l 1
 196 940 l 1
 262 844 l 1
 326 940 l 1
 379 940 l 1
 300 790 l 1
EndSplineSet
EndChar

StartChar: Thorn
Encoding: 222 222 60
Width: 547
Flags: MW
HStem: 0 20 189 82<151 310 151 310 310 338> 527 82<151 310 151 322> 709 20<75 151 151 151>
VStem: 75 76<0 189 271 527 609 729> 423 82<358.5 439.5>
LayerCount: 2
Fore
SplineSet
151 189 m 1
 151 0 l 1
 75 0 l 1
 75 729 l 1
 151 729 l 1
 151 609 l 1
 322 609 l 2
 436 609 505 529 505 397 c 0
 505 274 437 189 338 189 c 2
 151 189 l 1
151 271 m 1
 310 271 l 2
 382 271 423 318 423 399 c 0
 423 480 381 527 310 527 c 2
 151 527 l 1
 151 271 l 1
EndSplineSet
EndChar

StartChar: Ydieresis
Encoding: 376 376 61
Width: 547
Flags: W
HStem: 0 20 709 20<11 105 105 105 450 542 542 542> 811 103<171 256 171 256 171 304 304 389>
VStem: 171 85<811 914 811 914> 241 76<0 286 0 286> 304 85<811 914 811 914>
LayerCount: 2
Fore
SplineSet
317 286 m 1xe8
 317 0 l 1
 241 0 l 1
 241 286 l 1
 11 729 l 1
 105 729 l 1
 280 374 l 1
 450 729 l 1
 542 729 l 1
 317 286 l 1xe8
256 914 m 1xf4
 256 811 l 1
 171 811 l 1
 171 914 l 1
 256 914 l 1xf4
389 914 m 1
 389 811 l 1
 304 811 l 1
 304 914 l 1
 389 914 l 1
EndSplineSet
EndChar

StartChar: a
Encoding: 97 97 62
Width: 456
Flags: MW
HStem: -23 73<165 203.5> 462 77<195.5 255>
VStem: 35 71<108 161 108 166> 320 68<165 259 259 259 362 384 384 396>
LayerCount: 2
Fore
SplineSet
439 49 m 1
 439 -14 l 1
 417 -21 408 -23 393 -23 c 0
 348 -23 327 1 323 54 c 1
 274 0 231 -23 176 -23 c 0
 89 -23 35 37 35 132 c 0
 35 200 63 249 115 274 c 0
 140 286 154 289 249 304 c 0
 303 312 320 326 320 362 c 2
 320 384 l 2
 320 434 286 462 224 462 c 0
 160 462 129 433 123 369 c 1
 55 369 l 1
 57 423 65 454 86 480 c 0
 116 519 165 539 226 539 c 0
 332 539 388 489 388 396 c 2
 388 88 l 2
 388 62 401 47 424 47 c 0
 429 47 432 47 439 49 c 1
320 165 m 2
 320 259 l 1
 297 246 283 242 210 230 c 0
 137 217 106 188 106 134 c 0
 106 82 138 50 192 50 c 0
 232 50 266 66 293 97 c 0
 313 120 320 137 320 165 c 2
EndSplineSet
EndChar

StartChar: b
Encoding: 98 98 63
Width: 456
Flags: MW
HStem: -23 78<211 269 195.5 298> 461 78<214.5 269.5> 709 20<44 112 112 112>
VStem: 44 68<196 320 453 729> 358 71<196.5 316.5>
LayerCount: 2
Fore
SplineSet
44 729 m 1
 112 729 l 1
 112 453 l 1
 144 512 185 539 244 539 c 0
 358 539 429 433 429 264 c 0
 429 91 355 -23 241 -23 c 0
 181 -23 136 7 106 67 c 1
 106 0 l 1
 44 0 l 1
 44 729 l 1
232 461 m 0
 159 461 112 382 112 258 c 0
 112 134 159 55 232 55 c 0
 306 55 358 138 358 255 c 0
 358 378 307 461 232 461 c 0
EndSplineSet
EndChar

StartChar: c
Encoding: 99 99 64
Width: 410
Flags: MW
HStem: -23 77<179.5 246 179.5 266.5> 462 77<178.5 244.5>
VStem: 25 71<191.5 318.5 191.5 340>
LayerCount: 2
Fore
SplineSet
386 348 m 1
 317 348 l 1
 309 421 273 462 216 462 c 0
 141 462 96 384 96 253 c 0
 96 130 142 54 217 54 c 0
 275 54 310 96 322 180 c 1
 391 180 l 1
 382 51 318 -23 215 -23 c 0
 99 -23 25 84 25 253 c 0
 25 427 100 539 217 539 c 0
 278 539 331 508 360 456 c 0
 374 429 382 397 386 348 c 1
EndSplineSet
EndChar

StartChar: d
Encoding: 100 100 65
Width: 456
Flags: MW
HStem: -23 78<180.5 238> 461 78<180.5 235 150.5 255> 709 20<338 406 406 406>
VStem: 21 71<198 318 198 347> 338 68<195.5 318.5 458 729 0 729>
LayerCount: 2
Fore
SplineSet
406 729 m 1
 406 0 l 1
 345 0 l 1
 345 69 l 1
 310 5 268 -23 208 -23 c 0
 93 -23 21 87 21 264 c 0
 21 430 95 539 206 539 c 0
 264 539 309 511 338 458 c 1
 338 729 l 1
 406 729 l 1
218 461 m 0
 143 461 92 378 92 258 c 0
 92 138 143 55 218 55 c 0
 290 55 338 135 338 256 c 0
 338 381 292 461 218 461 c 0
EndSplineSet
EndChar

StartChar: e
Encoding: 101 101 66
Width: 456
Flags: MW
HStem: -23 77<209.5 258 209.5 277.5> 234 68<106 347 106 421 104 347> 462 77<194.5 263.5>
LayerCount: 2
Fore
SplineSet
421 234 m 1
 104 234 l 1
 105 180 112 150 129 119 c 0
 153 77 188 54 231 54 c 0
 285 54 324 90 343 159 c 1
 412 159 l 1
 395 45 326 -23 229 -23 c 0
 107 -23 33 82 33 255 c 0
 33 428 110 539 230 539 c 0
 313 539 379 484 406 394 c 1
 416 357 421 308 421 234 c 1
106 302 m 1
 347 302 l 1
 347 396 298 462 229 462 c 0
 160 462 112 399 106 302 c 1
EndSplineSet
EndChar

StartChar: f
Encoding: 102 102 67
Width: 228
Flags: MW
HStem: 0 20 456 68<15 72 15 72 140 212> 659 73<172 180 141 191>
VStem: 72 68<0 456 0 456 524 606>
LayerCount: 2
Fore
SplineSet
212 524 m 1
 212 456 l 1
 140 456 l 1
 140 0 l 1
 72 0 l 1
 72 456 l 1
 15 456 l 1
 15 524 l 1
 72 524 l 1
 72 613 l 2
 72 688 109 732 173 732 c 0
 187 732 196 731 212 727 c 1
 212 658 l 1
 199 659 194 659 188 659 c 0
 156 659 140 641 140 606 c 2
 140 524 l 1
 212 524 l 1
EndSplineSet
EndChar

StartChar: g
Encoding: 103 103 68
Width: 456
Flags: MW
HStem: -218 70<181 233 181 241> -23 77<178.5 228> 462 77<177.5 234.5 152.5 251.5>
VStem: 24 71<210 321 195 338> 338 63<448 524>
LayerCount: 2
Fore
SplineSet
338 524 m 1
 401 524 l 1
 401 86 l 2
 401 -37 389 -102 356 -151 c 0
 329 -192 273 -218 209 -218 c 0
 109 -218 46 -160 38 -60 c 1
 108 -60 l 1
 115 -118 150 -148 212 -148 c 0
 254 -148 290 -129 307 -99 c 0
 324 -68 331 -26 331 44 c 2
 331 71 l 1
 293 5 255 -23 201 -23 c 0
 156 -23 108 4 78 47 c 0
 42 99 24 167 24 253 c 0
 24 423 98 539 207 539 c 0
 262 539 304 510 338 448 c 1
 338 524 l 1
214 462 m 0
 141 462 95 384 95 258 c 0
 95 132 141 54 215 54 c 0
 288 54 331 129 331 255 c 0
 331 387 289 462 214 462 c 0
EndSplineSet
EndChar

StartChar: h
Encoding: 104 104 69
Width: 456
Flags: MW
HStem: 0 20 466 73<232 269.5> 709 20<57 125 125 125>
VStem: 57 68<0 289 452 729> 330 68<0 363 363 395>
LayerCount: 2
Fore
SplineSet
57 729 m 1
 125 729 l 1
 125 452 l 1
 165 516 201 539 263 539 c 0
 347 539 398 485 398 396 c 2
 398 0 l 1
 330 0 l 1
 330 363 l 2
 330 427 297 466 242 466 c 0
 171 466 125 396 125 289 c 2
 125 0 l 1
 57 0 l 1
 57 729 l 1
EndSplineSet
EndChar

StartChar: i
Encoding: 105 105 70
Width: 182
Flags: W
HStem: 0 20 624 105<54 123 54 123>
VStem: 54 68<0 524 0 524> 54 69<624 729 624 729>
LayerCount: 2
Fore
SplineSet
122 524 m 1xe0
 122 0 l 1
 54 0 l 1
 54 524 l 1
 122 524 l 1xe0
123 729 m 1xd0
 123 624 l 1
 54 624 l 1
 54 729 l 1
 123 729 l 1xd0
EndSplineSet
EndChar

StartChar: j
Encoding: 106 106 71
Width: 182
Flags: MW
HStem: -218 73<3 23 -1.5 47> 624 105<57 125 57 125>
VStem: 57 68<-76 524 624 729>
LayerCount: 2
Fore
SplineSet
57 524 m 1
 125 524 l 1
 125 -110 l 2
 125 -181 85 -218 9 -218 c 0
 -3 -218 -7 -218 -15 -215 c 1
 -15 -144 l 1
 -7 -145 -5 -145 2 -145 c 0
 44 -145 57 -129 57 -76 c 2
 57 524 l 1
125 729 m 1
 125 624 l 1
 57 624 l 1
 57 729 l 1
 125 729 l 1
EndSplineSet
EndChar

StartChar: k
Encoding: 107 107 72
Width: 410
Flags: MW
HStem: 0 20 709 20<48 116 116 116>
VStem: 48 68<0 204 302 729>
LayerCount: 2
Fore
SplineSet
116 729 m 1
 116 302 l 1
 298 524 l 1
 386 524 l 1
 236 343 l 1
 412 0 l 1
 328 0 l 1
 183 284 l 1
 116 204 l 1
 116 0 l 1
 48 0 l 1
 48 729 l 1
 116 729 l 1
EndSplineSet
EndChar

StartChar: l
Encoding: 108 108 73
Width: 182
Flags: MW
HStem: 0 20 709 20<56 125 125 125>
VStem: 56 69<0 729 0 729>
LayerCount: 2
Fore
SplineSet
125 729 m 1
 125 0 l 1
 56 0 l 1
 56 729 l 1
 125 729 l 1
EndSplineSet
EndChar

StartChar: m
Encoding: 109 109 74
Width: 683
Flags: W
HStem: 0 20 466 73<224 253 472 501> 504 20<58 121 121 121>
VStem: 58 63<450 524 450 524 450 524> 58 69<0 329 0 524> 307 69<0 329 0 361 0 394.5> 556 69<0 361 361 393 0 394>
LayerCount: 2
Fore
SplineSet
58 524 m 1xae
 121 524 l 1
 121 450 l 1x30
 159 514 195 539 253 539 c 0
 309 539 343 515 369 459 c 1
 409 518 443 539 501 539 c 0
 581 539 625 488 625 393 c 2
 625 0 l 1
 556 0 l 1
 556 361 l 2
 556 427 526 466 476 466 c 0
 421 466 376 405 376 329 c 2
 376 0 l 1
 307 0 l 1
 307 361 l 2
 307 428 278 466 228 466 c 0xce
 172 466 127 405 127 329 c 2
 127 0 l 1
 58 0 l 1
 58 524 l 1xae
EndSplineSet
EndChar

StartChar: n
Encoding: 110 110 75
Width: 456
Flags: W
HStem: 0 20 466 73<232 271> 504 20<58 121 121 121>
VStem: 58 63<436 524 436 524 436 524> 58 69<0 289 0 524> 332 68<0 363 363 394.5>
LayerCount: 2
Fore
SplineSet
58 524 m 1xac
 121 524 l 1
 121 436 l 1x30
 159 510 200 539 264 539 c 0
 347 539 400 483 400 396 c 2
 400 0 l 1
 332 0 l 1
 332 363 l 2
 332 426 298 466 244 466 c 0xcc
 173 466 127 396 127 289 c 2
 127 0 l 1
 58 0 l 1
 58 524 l 1xac
EndSplineSet
EndChar

StartChar: o
Encoding: 111 111 76
Width: 456
Flags: MW
HStem: -23 77<186 261.5 186 284.5> 462 77<186 262.5>
VStem: 30 71<195 321 195 346> 348 71<194.5 320>
LayerCount: 2
Fore
SplineSet
224 539 m 0
 348 539 419 435 419 254 c 0
 419 83 345 -23 224 -23 c 0
 102 -23 30 81 30 258 c 0
 30 434 102 539 224 539 c 0
224 462 m 0
 148 462 101 384 101 258 c 0
 101 132 148 54 224 54 c 0
 299 54 348 133 348 256 c 0
 348 384 301 462 224 462 c 0
EndSplineSet
EndChar

StartChar: p
Encoding: 112 112 77
Width: 456
Flags: W
HStem: -218 20 -23 78<217 270> 461 78<215.5 270.5>
VStem: 44 63<445 524 445 524 445 524> 44 69<-218 55 196.5 319.5> 358 71<196 317>
LayerCount: 2
Fore
SplineSet
44 -218 m 1xec
 44 524 l 1xec
 107 524 l 1
 107 445 l 1xf0
 141 508 186 539 245 539 c 0
 358 539 429 429 429 252 c 0
 429 86 356 -23 245 -23 c 0
 189 -23 149 1 113 55 c 1
 113 -218 l 1
 44 -218 l 1xec
233 461 m 0
 160 461 113 381 113 258 c 0
 113 135 160 55 233 55 c 0
 307 55 358 137 358 255 c 0
 358 379 308 461 233 461 c 0
EndSplineSet
EndChar

StartChar: q
Encoding: 113 113 78
Width: 456
Flags: MW
HStem: -218 20 -23 78<181 235.5> 461 78<181 237 152 255>
VStem: 21 71<198 318 198 338.5> 338 68<-218 60 60 60 195 318>
LayerCount: 2
Fore
SplineSet
406 -218 m 1
 338 -218 l 1
 338 60 l 1
 306 3 265 -23 206 -23 c 0
 92 -23 21 83 21 252 c 0
 21 425 95 539 209 539 c 0
 265 539 315 508 345 454 c 1
 345 524 l 1
 406 524 l 1
 406 -218 l 1
218 461 m 0
 144 461 92 378 92 258 c 0
 92 138 144 55 218 55 c 0
 290 55 338 135 338 255 c 0
 338 381 292 461 218 461 c 0
EndSplineSet
EndChar

StartChar: r
Encoding: 114 114 79
Width: 273
Flags: W
HStem: 0 20 504 20<57 120 120 120> 519 20<216 242>
VStem: 57 63<429 524 429 524 429 524> 57 69<0 272 0 524>
LayerCount: 2
Fore
SplineSet
57 524 m 1xc8
 120 524 l 1x50
 120 429 l 1
 161 509 194 539 238 539 c 0x30
 246 539 253 538 264 536 c 1
 264 451 l 1
 214 450 193 444 171 422 c 0
 141 392 126 344 126 272 c 2
 126 0 l 1
 57 0 l 1
 57 524 l 1xc8
EndSplineSet
EndChar

StartChar: s
Encoding: 115 115 80
Width: 410
Flags: MW
HStem: -23 77<187 235 187 253> 462 77<173 228.5>
VStem: 39 71<364.5 407.5 364.5 428> 306 71<112 154.5>
LayerCount: 2
Fore
SplineSet
360 378 m 1
 287 378 l 1
 285 433 256 462 201 462 c 0
 145 462 110 432 110 383 c 0
 110 346 134 324 189 308 c 2
 255 289 l 2
 340 264 377 221 377 143 c 0
 377 42 307 -23 199 -23 c 0
 87 -23 32 35 28 156 c 1
 100 156 l 1
 105 118 109 102 122 87 c 0
 139 66 169 54 205 54 c 0
 265 54 306 88 306 136 c 0
 306 173 285 196 239 209 c 2
 175 228 l 2
 72 259 39 296 39 379 c 0
 39 477 103 539 203 539 c 0
 303 539 359 482 360 378 c 1
EndSplineSet
EndChar

StartChar: t
Encoding: 116 116 81
Width: 228
Flags: MW
HStem: -23 73<160 161> 456 68<11 69 11 69 137 208>
VStem: 69 68<79 97 97 456 524 668>
LayerCount: 2
Fore
SplineSet
208 524 m 1
 208 456 l 1
 137 456 l 1
 137 97 l 2
 137 61 146 50 174 50 c 0
 189 50 198 51 208 54 c 1
 208 -16 l 1
 184 -21 170 -23 152 -23 c 0
 98 -23 69 6 69 60 c 2
 69 456 l 1
 11 456 l 1
 11 524 l 1
 69 524 l 1
 69 668 l 1
 137 668 l 1
 137 524 l 1
 208 524 l 1
EndSplineSet
EndChar

StartChar: u
Encoding: 117 117 82
Width: 456
Flags: W
HStem: -23 73<183 222> 504 20<53 121 121 121 327 395 395 395>
VStem: 53 68<121.5 153 153 524> 327 68<227 524> 333 62<0 73 73 73>
LayerCount: 2
Fore
SplineSet
395 0 m 1xf0
 333 0 l 1
 333 73 l 1xc8
 295 5 254 -23 190 -23 c 0
 106 -23 53 32 53 120 c 2
 53 524 l 1
 121 524 l 1
 121 153 l 2
 121 90 156 50 210 50 c 0
 281 50 327 120 327 227 c 2
 327 524 l 1
 395 524 l 1
 395 0 l 1xf0
EndSplineSet
EndChar

StartChar: v
Encoding: 118 118 83
Width: 410
Flags: MW
HStem: 0 20 504 20<8 85 85 85 321 398 398 398>
LayerCount: 2
Fore
SplineSet
234 0 m 1
 159 0 l 1
 8 524 l 1
 85 524 l 1
 200 99 l 1
 321 524 l 1
 398 524 l 1
 234 0 l 1
EndSplineSet
EndChar

StartChar: w
Encoding: 119 119 84
Width: 592
Flags: MW
HStem: 0 20 504 20<5 80 80 80 250 334 334 334 504 581 581 581>
LayerCount: 2
Fore
SplineSet
454 0 m 1
 377 0 l 1
 289 411 l 1
 207 0 l 1
 129 0 l 1
 5 524 l 1
 80 524 l 1
 168 116 l 1
 250 524 l 1
 334 524 l 1
 418 116 l 1
 504 524 l 1
 581 524 l 1
 454 0 l 1
EndSplineSet
EndChar

StartChar: x
Encoding: 120 120 85
Width: 410
Flags: MW
HStem: 0 20 504 20<22 100 100 100 307 384 384 384>
LayerCount: 2
Fore
SplineSet
240 271 m 1
 388 0 l 1
 309 0 l 1
 201 201 l 1
 92 0 l 1
 14 0 l 1
 166 267 l 1
 22 524 l 1
 100 524 l 1
 203 334 l 1
 307 524 l 1
 384 524 l 1
 240 271 l 1
EndSplineSet
EndChar

StartChar: y
Encoding: 121 121 86
Width: 410
Flags: MW
HStem: -218 82<80.5 94.5 74 116> 504 20<16 90 90 90 318 392 392 392>
LayerCount: 2
Fore
SplineSet
318 524 m 1
 392 524 l 1
 200 -110 l 2
 178 -182 142 -218 90 -218 c 0
 71 -218 58 -214 44 -205 c 1
 44 -130 l 1
 59 -134 68 -136 80 -136 c 0
 109 -136 124 -122 136 -85 c 2
 161 -2 l 1
 16 524 l 1
 90 524 l 1
 199 116 l 1
 318 524 l 1
EndSplineSet
EndChar

StartChar: z
Encoding: 122 122 87
Width: 410
Flags: MW
HStem: 0 73<107 374 107 374> 451 73<42 282 42 363>
LayerCount: 2
Fore
SplineSet
363 524 m 1
 363 450 l 1
 107 73 l 1
 374 73 l 1
 374 0 l 1
 25 0 l 1
 25 75 l 1
 282 451 l 1
 42 451 l 1
 42 524 l 1
 363 524 l 1
EndSplineSet
EndChar

StartChar: ae
Encoding: 230 230 88
Width: 729
Flags: W
HStem: -23 73<156.5 198> -23 77<482 530.5 482 550.5> 234 68<379 620 379 693 377 620> 462 77<188 247.5 473.5 536.5>
VStem: 28 71<108.5 161 108.5 166>
LayerCount: 2
Fore
SplineSet
616 159 m 1x78
 685 159 l 1
 667 45 599 -23 502 -23 c 0x48
 427 -23 375 13 344 87 c 1
 282 9 230 -23 166 -23 c 0x88
 83 -23 28 38 28 132 c 0
 28 200 55 249 108 274 c 0
 136 288 161 293 242 303 c 0
 298 310 313 322 313 362 c 2
 313 384 l 2
 313 435 279 462 216 462 c 0
 153 462 122 433 116 369 c 1
 48 369 l 1
 50 423 58 454 79 480 c 0
 109 518 158 539 218 539 c 0
 288 539 336 512 361 457 c 1
 391 508 444 539 503 539 c 0
 586 539 652 484 678 393 c 0
 689 357 693 311 693 234 c 1
 377 234 l 1
 378 180 384 150 402 119 c 0
 425 77 461 54 503 54 c 0
 558 54 596 89 616 159 c 1x78
313 157 m 2xb8
 313 258 l 1
 290 246 276 242 203 229 c 0
 130 216 99 188 99 134 c 0
 99 83 131 50 182 50 c 0
 216 50 247 63 275 90 c 0
 298 113 313 139 313 157 c 2xb8
379 302 m 1
 620 302 l 1
 620 397 571 462 502 462 c 0
 433 462 384 399 379 302 c 1
EndSplineSet
EndChar

StartChar: oe
Encoding: 339 339 89
Width: 774
Flags: MW
HStem: -23 77<189 263 526 574.5> 234 68<423 664 423 737 421 664> 462 77<189 264 165 266 513 580>
VStem: 33 71<195 321 195 348.5>
LayerCount: 2
Fore
SplineSet
660 159 m 1
 729 159 l 1
 712 46 643 -23 546 -23 c 0
 476 -23 419 14 387 80 c 1
 352 11 299 -23 227 -23 c 0
 103 -23 33 79 33 259 c 0
 33 438 103 539 227 539 c 0
 301 539 354 504 388 433 c 1
 422 501 479 539 547 539 c 0
 629 539 696 484 722 394 c 0
 733 357 738 309 737 234 c 1
 421 234 l 1
 422 180 428 150 445 119 c 0
 469 77 505 54 547 54 c 0
 602 54 641 90 660 159 c 1
227 462 m 0
 151 462 104 384 104 258 c 0
 104 132 151 54 227 54 c 0
 304 54 350 130 350 256 c 0
 350 387 305 462 227 462 c 0
423 302 m 1
 664 302 l 1
 664 397 615 462 545 462 c 0
 476 462 428 399 423 302 c 1
EndSplineSet
EndChar

StartChar: oslash
Encoding: 248 248 90
Width: 501
Flags: MW
HStem: -23 77<207 262.5 207 286> 462 77<186 242>
VStem: 30 71<234 321 234 346.5> 347 71<194.5 280.5>
LayerCount: 2
Fore
SplineSet
434 511 m 1
 382 440 l 1
 408 389 418 336 418 259 c 0
 418 81 347 -23 225 -23 c 0
 170 -23 124 -2 91 39 c 1
 41 -30 l 1
 15 -2 l 1
 69 72 l 1
 42 120 30 179 30 258 c 0
 30 435 102 539 224 539 c 0
 281 539 324 518 361 474 c 1
 408 539 l 1
 434 511 l 1
332 371 m 1
 137 103 l 1
 161 70 190 54 224 54 c 0
 301 54 347 131 347 258 c 0
 347 303 342 340 332 371 c 1
119 141 m 1
 314 410 l 1
 293 443 260 462 224 462 c 0
 148 462 101 385 101 257 c 0
 101 211 106 177 119 141 c 1
EndSplineSet
EndChar

StartChar: germandbls
Encoding: 223 223 91
Width: 501
Flags: W
HStem: -20 82<272 308 244 336.5> 651 78<250.5 298.5>
VStem: 103 68<0 539 0 570> 367 71<510 574> 392 71<168 257.5>
LayerCount: 2
Fore
SplineSet
247 349 m 1xc8
 247 432 l 1
 250 431 253 431 254 431 c 0
 319 431 367 478 367 542 c 0
 367 606 327 651 270 651 c 0
 210 651 171 607 171 539 c 2
 171 0 l 1
 103 0 l 1
 103 539 l 2
 103 601 116 641 146 674 c 0
 178 709 226 729 275 729 c 0
 373 729 438 656 438 545 c 0xf0
 438 474 410 429 348 401 c 1
 429 368 463 313 463 219 c 0
 463 71 393 -20 280 -20 c 0
 264 -20 257 -19 244 -16 c 1
 244 62 l 1
 251 62 l 1
 272 62 l 2
 344 62 392 123 392 213 c 0
 392 302 350 349 272 349 c 2
 258 349 l 1
 247 349 l 1xc8
EndSplineSet
EndChar

StartChar: dotlessi
Encoding: 305 305 92
Width: 228
Flags: MW
HStem: 0 20 504 20<77 146 146 146>
VStem: 77 69<0 524 0 524>
LayerCount: 2
Fore
SplineSet
146 524 m 1
 146 0 l 1
 77 0 l 1
 77 524 l 1
 146 524 l 1
EndSplineSet
EndChar

StartChar: fi
Encoding: 64257 64257 93
Width: 410
Flags: W
HStem: 0 20 456 68<10 67 10 67 135 207> 624 105<290 358 290 358> 659 73<167 175 136 186>
VStem: 67 68<0 456 0 456 524 606> 290 68<0 524 0 524 624 729>
LayerCount: 2
Fore
SplineSet
207 524 m 1xdc
 207 456 l 1
 135 456 l 1
 135 0 l 1
 67 0 l 1
 67 456 l 1
 10 456 l 1
 10 524 l 1
 67 524 l 1
 67 613 l 2
 67 688 104 732 168 732 c 0
 182 732 191 731 207 727 c 1
 207 658 l 1
 194 659 189 659 183 659 c 0
 151 659 135 641 135 606 c 2
 135 524 l 1
 207 524 l 1xdc
358 524 m 1
 358 0 l 1
 290 0 l 1
 290 524 l 1
 358 524 l 1
358 729 m 1x2c
 358 624 l 1
 290 624 l 1
 290 729 l 1
 358 729 l 1x2c
EndSplineSet
EndChar

StartChar: fl
Encoding: 64258 64258 94
Width: 410
Flags: W
HStem: 0 20 456 68<15 72 15 72 140 212> 659 73<172 180 141 191> 709 20<285 353 353 353>
VStem: 72 68<0 456 0 456 524 606> 285 68<0 729 0 729>
LayerCount: 2
Fore
SplineSet
212 524 m 1xec
 212 456 l 1
 140 456 l 1
 140 0 l 1
 72 0 l 1
 72 456 l 1
 15 456 l 1
 15 524 l 1
 72 524 l 1
 72 613 l 2
 72 688 109 732 173 732 c 0
 187 732 196 731 212 727 c 1
 212 658 l 1
 199 659 194 659 188 659 c 0
 156 659 140 641 140 606 c 2
 140 524 l 1
 212 524 l 1xec
353 729 m 1x9c
 353 0 l 1
 285 0 l 1
 285 729 l 1
 353 729 l 1x9c
EndSplineSet
EndChar

StartChar: adieresis
Encoding: 228 228 95
Width: 456
Flags: W
HStem: -23 73<165 203.5> 462 77<195.5 255> 612 103<115 200 115 200 115 248 248 333>
VStem: 35 71<108 161 108 166> 115 85<612 715 612 715> 248 85<612 715 612 715> 320 68<165 259 259 259 362 384 384 396>
LayerCount: 2
Fore
SplineSet
439 49 m 1xfa
 439 -14 l 1
 417 -21 408 -23 393 -23 c 0
 348 -23 327 1 323 54 c 1
 274 0 231 -23 176 -23 c 0
 89 -23 35 37 35 132 c 0
 35 200 63 249 115 274 c 0
 140 286 154 289 249 304 c 0
 303 312 320 326 320 362 c 2
 320 384 l 2
 320 434 286 462 224 462 c 0
 160 462 129 433 123 369 c 1
 55 369 l 1
 57 423 65 454 86 480 c 0
 116 519 165 539 226 539 c 0
 332 539 388 489 388 396 c 2
 388 88 l 2
 388 62 401 47 424 47 c 0
 429 47 432 47 439 49 c 1xfa
320 165 m 2
 320 259 l 1
 297 246 283 242 210 230 c 0
 137 217 106 188 106 134 c 0
 106 82 138 50 192 50 c 0
 232 50 266 66 293 97 c 0
 313 120 320 137 320 165 c 2
200 715 m 1
 200 612 l 1
 115 612 l 1
 115 715 l 1
 200 715 l 1
333 715 m 1xe4
 333 612 l 1
 248 612 l 1
 248 715 l 1
 333 715 l 1xe4
EndSplineSet
EndChar

StartChar: aacute
Encoding: 225 225 96
Width: 456
Flags: MW
HStem: -23 73<165 203.5> 462 77<195.5 255> 720 20<250 342 342 342>
VStem: 35 71<108 161 108 166> 320 68<165 259 259 259 362 384 384 396>
LayerCount: 2
Fore
SplineSet
439 49 m 1
 439 -14 l 1
 417 -21 408 -23 393 -23 c 0
 348 -23 327 1 323 54 c 1
 274 0 231 -23 176 -23 c 0
 89 -23 35 37 35 132 c 0
 35 200 63 249 115 274 c 0
 140 286 154 289 249 304 c 0
 303 312 320 326 320 362 c 2
 320 384 l 2
 320 434 286 462 224 462 c 0
 160 462 129 433 123 369 c 1
 55 369 l 1
 57 423 65 454 86 480 c 0
 116 519 165 539 226 539 c 0
 332 539 388 489 388 396 c 2
 388 88 l 2
 388 62 401 47 424 47 c 0
 429 47 432 47 439 49 c 1
320 165 m 2
 320 259 l 1
 297 246 283 242 210 230 c 0
 137 217 106 188 106 134 c 0
 106 82 138 50 192 50 c 0
 232 50 266 66 293 97 c 0
 313 120 320 137 320 165 c 2
250 740 m 1
 342 740 l 1
 220 592 l 1
 171 592 l 1
 250 740 l 1
EndSplineSet
EndChar

StartChar: agrave
Encoding: 224 224 97
Width: 456
Flags: MW
HStem: -23 73<165 203.5> 462 77<195.5 255> 720 20<113 206 206 206>
VStem: 35 71<108 161 108 166> 320 68<165 259 259 259 362 384 384 396>
LayerCount: 2
Fore
SplineSet
439 49 m 1
 439 -14 l 1
 417 -21 408 -23 393 -23 c 0
 348 -23 327 1 323 54 c 1
 274 0 231 -23 176 -23 c 0
 89 -23 35 37 35 132 c 0
 35 200 63 249 115 274 c 0
 140 286 154 289 249 304 c 0
 303 312 320 326 320 362 c 2
 320 384 l 2
 320 434 286 462 224 462 c 0
 160 462 129 433 123 369 c 1
 55 369 l 1
 57 423 65 454 86 480 c 0
 116 519 165 539 226 539 c 0
 332 539 388 489 388 396 c 2
 388 88 l 2
 388 62 401 47 424 47 c 0
 429 47 432 47 439 49 c 1
320 165 m 2
 320 259 l 1
 297 246 283 242 210 230 c 0
 137 217 106 188 106 134 c 0
 106 82 138 50 192 50 c 0
 232 50 266 66 293 97 c 0
 313 120 320 137 320 165 c 2
206 740 m 1
 285 592 l 1
 235 592 l 1
 113 740 l 1
 206 740 l 1
EndSplineSet
EndChar

StartChar: acircumflex
Encoding: 226 226 98
Width: 456
Flags: MW
HStem: -23 73<165 203.5> 462 77<195.5 255> 721 20<187 265 265 265>
VStem: 35 71<108 161 108 166> 320 68<165 259 259 259 362 384 384 396>
LayerCount: 2
Fore
SplineSet
439 49 m 1
 439 -14 l 1
 417 -21 408 -23 393 -23 c 0
 348 -23 327 1 323 54 c 1
 274 0 231 -23 176 -23 c 0
 89 -23 35 37 35 132 c 0
 35 200 63 249 115 274 c 0
 140 286 154 289 249 304 c 0
 303 312 320 326 320 362 c 2
 320 384 l 2
 320 434 286 462 224 462 c 0
 160 462 129 433 123 369 c 1
 55 369 l 1
 57 423 65 454 86 480 c 0
 116 519 165 539 226 539 c 0
 332 539 388 489 388 396 c 2
 388 88 l 2
 388 62 401 47 424 47 c 0
 429 47 432 47 439 49 c 1
320 165 m 2
 320 259 l 1
 297 246 283 242 210 230 c 0
 137 217 106 188 106 134 c 0
 106 82 138 50 192 50 c 0
 232 50 266 66 293 97 c 0
 313 120 320 137 320 165 c 2
187 741 m 1
 265 741 l 1
 344 591 l 1
 292 591 l 1
 226 687 l 1
 161 591 l 1
 109 591 l 1
 187 741 l 1
EndSplineSet
EndChar

StartChar: atilde
Encoding: 227 227 99
Width: 456
Flags: W
HStem: -23 73<165 203.5> 462 77<195.5 255> 613 68<274 284.5 271 302> 650 67<165.5 177 150 178>
VStem: 35 71<108 161 108 166> 320 68<165 259 259 259 362 384 384 396>
LayerCount: 2
Fore
SplineSet
439 49 m 1xec
 439 -14 l 1
 417 -21 408 -23 393 -23 c 0
 348 -23 327 1 323 54 c 1
 274 0 231 -23 176 -23 c 0
 89 -23 35 37 35 132 c 0
 35 200 63 249 115 274 c 0
 140 286 154 289 249 304 c 0
 303 312 320 326 320 362 c 2
 320 384 l 2
 320 434 286 462 224 462 c 0
 160 462 129 433 123 369 c 1
 55 369 l 1
 57 423 65 454 86 480 c 0
 116 519 165 539 226 539 c 0
 332 539 388 489 388 396 c 2
 388 88 l 2
 388 62 401 47 424 47 c 0
 429 47 432 47 439 49 c 1xec
320 165 m 2
 320 259 l 1
 297 246 283 242 210 230 c 0
 137 217 106 188 106 134 c 0
 106 82 138 50 192 50 c 0
 232 50 266 66 293 97 c 0
 313 120 320 137 320 165 c 2
308 717 m 1
 355 717 l 1
 348 649 322 613 282 613 c 0x2c
 266 613 261 615 212 638 c 0
 190 648 184 650 172 650 c 0
 159 650 150 638 145 614 c 1
 97 614 l 1
 106 680 132 717 168 717 c 0x1c
 186 717 191 715 225 698 c 0
 247 687 265 681 277 681 c 0
 292 681 301 692 308 717 c 1
EndSplineSet
EndChar

StartChar: aring
Encoding: 229 229 100
Width: 456
Flags: MW
HStem: -23 73<165 203.5> 462 77<195.5 255> 579 44<216 236.5 216 246> 710 44<215.5 237>
VStem: 35 71<108 161 108 166> 154 36<655 679.5 655 691> 262 36<654 679.5> 320 68<165 259 259 259 362 384 384 396>
LayerCount: 2
Fore
SplineSet
439 49 m 1
 439 -14 l 1
 417 -21 408 -23 393 -23 c 0
 348 -23 327 1 323 54 c 1
 274 0 231 -23 176 -23 c 0
 89 -23 35 37 35 132 c 0
 35 200 63 249 115 274 c 0
 140 286 154 289 249 304 c 0
 303 312 320 326 320 362 c 2
 320 384 l 2
 320 434 286 462 224 462 c 0
 160 462 129 433 123 369 c 1
 55 369 l 1
 57 423 65 454 86 480 c 0
 116 519 165 539 226 539 c 0
 332 539 388 489 388 396 c 2
 388 88 l 2
 388 62 401 47 424 47 c 0
 429 47 432 47 439 49 c 1
320 165 m 2
 320 259 l 1
 297 246 283 242 210 230 c 0
 137 217 106 188 106 134 c 0
 106 82 138 50 192 50 c 0
 232 50 266 66 293 97 c 0
 313 120 320 137 320 165 c 2
226 754 m 0
 267 754 298 717 298 666 c 0
 298 618 266 579 226 579 c 0
 187 579 154 619 154 667 c 0
 154 715 186 754 226 754 c 0
226 710 m 0
 205 710 190 692 190 667 c 0
 190 643 206 623 226 623 c 0
 247 623 262 642 262 666 c 0
 262 693 248 710 226 710 c 0
EndSplineSet
EndChar

StartChar: ccedilla
Encoding: 231 231 101
Width: 410
Flags: MW
HStem: -214 41<176.5 200 176.5 223.5> -91 144<189 206> 462 77<178.5 244.5>
VStem: 25 71<202 318 190.5 340> 231 62<-141.5 -116>
LayerCount: 2
Fore
SplineSet
216 -23 m 1
 206 -56 l 1
 216 -54 222 -54 228 -54 c 0
 270 -54 293 -78 293 -121 c 0
 293 -179 255 -214 192 -214 c 0
 160 -214 144 -209 90 -181 c 1
 107 -140 l 1
 114 -144 l 1
 152 -167 166 -173 187 -173 c 0
 213 -173 231 -155 231 -128 c 0
 231 -104 218 -91 194 -91 c 0
 184 -91 179 -93 168 -99 c 1
 159 -92 l 1
 184 -21 l 1
 147 -12 127 -2 103 20 c 0
 53 67 25 151 25 253 c 0
 25 427 100 539 217 539 c 0
 278 539 331 508 360 456 c 0
 374 429 382 397 386 348 c 1
 317 348 l 1
 309 421 273 462 216 462 c 0
 141 462 96 384 96 252 c 0
 96 129 142 53 217 53 c 0
 275 53 310 95 322 180 c 1
 391 180 l 1
 385 55 317 -23 216 -23 c 1
EndSplineSet
EndChar

StartChar: edieresis
Encoding: 235 235 102
Width: 456
Flags: MW
HStem: -23 77<209.5 258 209.5 277.5> 234 68<106 347 106 421 104 347> 462 77<194.5 263.5> 612 103<126 211 126 211 126 259 259 344>
VStem: 126 85<612 715 612 715> 259 85<612 715 612 715>
LayerCount: 2
Fore
SplineSet
421 234 m 1
 104 234 l 1
 105 180 112 150 129 119 c 0
 153 77 188 54 231 54 c 0
 285 54 324 90 343 159 c 1
 412 159 l 1
 395 45 326 -23 229 -23 c 0
 107 -23 33 82 33 255 c 0
 33 428 110 539 230 539 c 0
 313 539 379 484 406 394 c 1
 416 357 421 308 421 234 c 1
106 302 m 1
 347 302 l 1
 347 396 298 462 229 462 c 0
 160 462 112 399 106 302 c 1
211 715 m 1
 211 612 l 1
 126 612 l 1
 126 715 l 1
 211 715 l 1
344 715 m 1
 344 612 l 1
 259 612 l 1
 259 715 l 1
 344 715 l 1
EndSplineSet
EndChar

StartChar: eacute
Encoding: 233 233 103
Width: 456
Flags: MW
HStem: -23 77<209.5 258 209.5 277.5> 234 68<106 347 106 421 104 347> 462 77<194.5 263.5> 720 20<253 345 345 345>
LayerCount: 2
Fore
SplineSet
421 234 m 1
 104 234 l 1
 105 180 112 150 129 119 c 0
 153 77 188 54 231 54 c 0
 285 54 324 90 343 159 c 1
 412 159 l 1
 395 45 326 -23 229 -23 c 0
 107 -23 33 82 33 255 c 0
 33 428 110 539 230 539 c 0
 313 539 379 484 406 394 c 1
 416 357 421 308 421 234 c 1
106 302 m 1
 347 302 l 1
 347 396 298 462 229 462 c 0
 160 462 112 399 106 302 c 1
253 740 m 1
 345 740 l 1
 223 592 l 1
 174 592 l 1
 253 740 l 1
EndSplineSet
EndChar

StartChar: egrave
Encoding: 232 232 104
Width: 456
Flags: MW
HStem: -23 77<209.5 258 209.5 277.5> 234 68<106 347 106 421 104 347> 462 77<194.5 263.5> 720 20<114 206 206 206>
LayerCount: 2
Fore
SplineSet
421 234 m 1
 104 234 l 1
 105 180 112 150 129 119 c 0
 153 77 188 54 231 54 c 0
 285 54 324 90 343 159 c 1
 412 159 l 1
 395 45 326 -23 229 -23 c 0
 107 -23 33 82 33 255 c 0
 33 428 110 539 230 539 c 0
 313 539 379 484 406 394 c 1
 416 357 421 308 421 234 c 1
106 302 m 1
 347 302 l 1
 347 396 298 462 229 462 c 0
 160 462 112 399 106 302 c 1
206 740 m 1
 285 592 l 1
 236 592 l 1
 114 740 l 1
 206 740 l 1
EndSplineSet
EndChar

StartChar: ecircumflex
Encoding: 234 234 105
Width: 456
Flags: MW
HStem: -23 77<209.5 258 209.5 277.5> 234 68<106 347 106 421 104 347> 462 77<194.5 263.5> 721 20<196 274 274 274>
LayerCount: 2
Fore
SplineSet
421 234 m 1
 104 234 l 1
 105 180 112 150 129 119 c 0
 153 77 188 54 231 54 c 0
 285 54 324 90 343 159 c 1
 412 159 l 1
 395 45 326 -23 229 -23 c 0
 107 -23 33 82 33 255 c 0
 33 428 110 539 230 539 c 0
 313 539 379 484 406 394 c 1
 416 357 421 308 421 234 c 1
106 302 m 1
 347 302 l 1
 347 396 298 462 229 462 c 0
 160 462 112 399 106 302 c 1
196 741 m 1
 274 741 l 1
 353 591 l 1
 301 591 l 1
 235 687 l 1
 170 591 l 1
 117 591 l 1
 196 741 l 1
EndSplineSet
EndChar

StartChar: idieresis
Encoding: 239 239 106
Width: 228
Flags: W
HStem: 0 20 504 20<77 145 145 145> 605 103<2 87 2 87 2 135 135 220>
VStem: 2 85<605 708 605 708> 77 68<0 524 0 524> 135 85<605 708 605 708>
LayerCount: 2
Fore
SplineSet
145 524 m 1xe8
 145 0 l 1
 77 0 l 1
 77 524 l 1
 145 524 l 1xe8
87 708 m 1xf4
 87 605 l 1
 2 605 l 1
 2 708 l 1
 87 708 l 1xf4
220 708 m 1
 220 605 l 1
 135 605 l 1
 135 708 l 1
 220 708 l 1
EndSplineSet
EndChar

StartChar: iacute
Encoding: 237 237 107
Width: 228
Flags: MW
HStem: 0 20 504 20<77 145 145 145> 720 20<132 224 224 224>
VStem: 77 68<0 524 0 524>
LayerCount: 2
Fore
SplineSet
145 524 m 1
 145 0 l 1
 77 0 l 1
 77 524 l 1
 145 524 l 1
132 740 m 1
 224 740 l 1
 102 592 l 1
 53 592 l 1
 132 740 l 1
EndSplineSet
EndChar

StartChar: igrave
Encoding: 236 236 108
Width: 228
Flags: MW
HStem: 0 20 504 20<77 145 145 145> 720 20<-4 88 88 88>
VStem: 77 68<0 524 0 524>
LayerCount: 2
Fore
SplineSet
145 524 m 1
 145 0 l 1
 77 0 l 1
 77 524 l 1
 145 524 l 1
88 740 m 1
 167 592 l 1
 118 592 l 1
 -4 740 l 1
 88 740 l 1
EndSplineSet
EndChar

StartChar: icircumflex
Encoding: 238 238 109
Width: 228
Flags: MW
HStem: 0 20 504 20<77 145 145 145> 721 20<73 150 150 150>
VStem: 77 68<0 524 0 524>
LayerCount: 2
Fore
SplineSet
145 524 m 1
 145 0 l 1
 77 0 l 1
 77 524 l 1
 145 524 l 1
73 741 m 1
 150 741 l 1
 229 591 l 1
 177 591 l 1
 111 687 l 1
 47 591 l 1
 -6 591 l 1
 73 741 l 1
EndSplineSet
EndChar

StartChar: lslash
Encoding: 322 322 110
Width: 182
Flags: MW
HStem: 0 20 709 20<52 120 120 120>
VStem: 52 68<0 313 313 313 421 729>
LayerCount: 2
Fore
SplineSet
120 421 m 1
 174 472 l 1
 174 408 l 1
 120 357 l 1
 120 0 l 1
 52 0 l 1
 52 313 l 1
 0 263 l 1
 0 327 l 1
 52 377 l 1
 52 729 l 1
 120 729 l 1
 120 421 l 1
EndSplineSet
EndChar

StartChar: ntilde
Encoding: 241 241 111
Width: 456
Flags: W
HStem: 0 20 466 73<232 271> 504 20<58 121 121 121> 613 68<277 287.5 274 305> 650 67<168.5 180 152.5 180.5>
VStem: 58 63<436 524 436 524 436 524> 58 69<0 289 0 524> 332 68<0 363 363 394.5>
LayerCount: 2
Fore
SplineSet
58 524 m 1xa3
 121 524 l 1
 121 436 l 1x34
 159 510 200 539 264 539 c 0
 347 539 400 483 400 396 c 2
 400 0 l 1
 332 0 l 1
 332 363 l 2
 332 426 298 466 244 466 c 0xc3
 173 466 127 396 127 289 c 2
 127 0 l 1
 58 0 l 1
 58 524 l 1xa3
310 717 m 1
 358 717 l 1
 350 648 325 613 285 613 c 0x14
 269 613 264 614 215 638 c 0
 193 648 186 650 175 650 c 0
 162 650 153 638 148 614 c 1
 100 614 l 1
 109 680 134 717 171 717 c 0x0c
 189 717 194 715 228 698 c 0
 249 687 268 681 280 681 c 0
 295 681 304 692 310 717 c 1
EndSplineSet
EndChar

StartChar: odieresis
Encoding: 246 246 112
Width: 456
Flags: MW
HStem: -23 77<186 261.5 186 284.5> 462 77<186 262.5> 612 103<115 200 115 200 115 248 248 333>
VStem: 30 71<195 321 195 346> 115 85<612 715 612 715> 248 85<612 715 612 715> 348 71<194.5 320>
LayerCount: 2
Fore
SplineSet
224 539 m 0
 348 539 419 435 419 254 c 0
 419 83 345 -23 224 -23 c 0
 102 -23 30 81 30 258 c 0
 30 434 102 539 224 539 c 0
224 462 m 0
 148 462 101 384 101 258 c 0
 101 132 148 54 224 54 c 0
 299 54 348 133 348 256 c 0
 348 384 301 462 224 462 c 0
200 715 m 1
 200 612 l 1
 115 612 l 1
 115 715 l 1
 200 715 l 1
333 715 m 1
 333 612 l 1
 248 612 l 1
 248 715 l 1
 333 715 l 1
EndSplineSet
EndChar

StartChar: oacute
Encoding: 243 243 113
Width: 456
Flags: MW
HStem: -23 77<186 261.5 186 284.5> 462 77<186 262.5> 720 20<245 337 337 337>
VStem: 30 71<195 321 195 346> 348 71<194.5 320>
LayerCount: 2
Fore
SplineSet
224 539 m 0
 348 539 419 435 419 254 c 0
 419 83 345 -23 224 -23 c 0
 102 -23 30 81 30 258 c 0
 30 434 102 539 224 539 c 0
224 462 m 0
 148 462 101 384 101 258 c 0
 101 132 148 54 224 54 c 0
 299 54 348 133 348 256 c 0
 348 384 301 462 224 462 c 0
245 740 m 1
 337 740 l 1
 215 592 l 1
 166 592 l 1
 245 740 l 1
EndSplineSet
EndChar

StartChar: ograve
Encoding: 242 242 114
Width: 456
Flags: MW
HStem: -23 77<186 261.5 186 284.5> 462 77<186 262.5> 720 20<109 201 201 201>
VStem: 30 71<195 321 195 346> 348 71<194.5 320>
LayerCount: 2
Fore
SplineSet
224 539 m 0
 348 539 419 435 419 254 c 0
 419 83 345 -23 224 -23 c 0
 102 -23 30 81 30 258 c 0
 30 434 102 539 224 539 c 0
224 462 m 0
 148 462 101 384 101 258 c 0
 101 132 148 54 224 54 c 0
 299 54 348 133 348 256 c 0
 348 384 301 462 224 462 c 0
201 740 m 1
 280 592 l 1
 231 592 l 1
 109 740 l 1
 201 740 l 1
EndSplineSet
EndChar

StartChar: ocircumflex
Encoding: 244 244 115
Width: 456
Flags: MW
HStem: -23 77<186 261.5 186 284.5> 462 77<186 262.5> 721 20<185 263 263 263>
VStem: 30 71<195 321 195 346> 348 71<194.5 320>
LayerCount: 2
Fore
SplineSet
224 539 m 0
 348 539 419 435 419 254 c 0
 419 83 345 -23 224 -23 c 0
 102 -23 30 81 30 258 c 0
 30 434 102 539 224 539 c 0
224 462 m 0
 148 462 101 384 101 258 c 0
 101 132 148 54 224 54 c 0
 299 54 348 133 348 256 c 0
 348 384 301 462 224 462 c 0
185 741 m 1
 263 741 l 1
 342 591 l 1
 290 591 l 1
 224 687 l 1
 159 591 l 1
 107 591 l 1
 185 741 l 1
EndSplineSet
EndChar

StartChar: otilde
Encoding: 245 245 116
Width: 456
Flags: W
HStem: -23 77<186 261.5 186 284.5> 462 77<186 262.5> 613 68<275 285.5 272 303> 650 67<166.5 178 151 179>
VStem: 30 71<195 321 195 346> 348 71<194.5 320>
LayerCount: 2
Fore
SplineSet
224 539 m 0xec
 348 539 419 435 419 254 c 0
 419 83 345 -23 224 -23 c 0
 102 -23 30 81 30 258 c 0
 30 434 102 539 224 539 c 0xec
224 462 m 0
 148 462 101 384 101 258 c 0
 101 132 148 54 224 54 c 0
 299 54 348 133 348 256 c 0
 348 384 301 462 224 462 c 0
309 717 m 1
 356 717 l 1
 348 648 323 613 283 613 c 0x2c
 267 613 263 614 213 638 c 0
 191 648 185 650 173 650 c 0
 160 650 151 638 146 614 c 1
 98 614 l 1
 108 681 133 717 169 717 c 0x1c
 187 717 192 715 226 698 c 0
 248 687 266 681 278 681 c 0
 293 681 302 692 309 717 c 1
EndSplineSet
EndChar

StartChar: scaron
Encoding: 353 353 117
Width: 410
Flags: MW
HStem: -23 77<187 235 187 253> 462 77<173 228.5> 721 20<85 137 137 137 267 320 320 320>
VStem: 39 71<364.5 407.5 364.5 428> 306 71<112 154.5>
LayerCount: 2
Fore
SplineSet
360 378 m 1
 287 378 l 1
 285 433 256 462 201 462 c 0
 145 462 110 432 110 383 c 0
 110 346 134 324 189 308 c 2
 255 289 l 2
 340 264 377 221 377 143 c 0
 377 42 307 -23 199 -23 c 0
 87 -23 32 35 28 156 c 1
 100 156 l 1
 105 118 109 102 122 87 c 0
 139 66 169 54 205 54 c 0
 265 54 306 88 306 136 c 0
 306 173 285 196 239 209 c 2
 175 228 l 2
 72 259 39 296 39 379 c 0
 39 477 103 539 203 539 c 0
 303 539 359 482 360 378 c 1
241 591 m 1
 164 591 l 1
 85 741 l 1
 137 741 l 1
 203 645 l 1
 267 741 l 1
 320 741 l 1
 241 591 l 1
EndSplineSet
EndChar

StartChar: udieresis
Encoding: 252 252 118
Width: 456
Flags: W
HStem: -23 73<183 222> 504 20<53 121 121 121 327 395 395 395> 612 103<115 200 115 200 115 248 248 333>
VStem: 53 68<121.5 153 153 524> 115 85<612 715 612 715> 248 85<612 715> 327 68<227 524> 333 62<0 73 73 73>
LayerCount: 2
Fore
SplineSet
395 0 m 1xf2
 333 0 l 1
 333 73 l 1xe1
 295 5 254 -23 190 -23 c 0
 106 -23 53 32 53 120 c 2
 53 524 l 1
 121 524 l 1
 121 153 l 2
 121 90 156 50 210 50 c 0
 281 50 327 120 327 227 c 2
 327 524 l 1
 395 524 l 1
 395 0 l 1xf2
200 715 m 1xea
 200 612 l 1
 115 612 l 1
 115 715 l 1
 200 715 l 1xea
333 715 m 1xe4
 333 612 l 1
 248 612 l 1
 248 715 l 1
 333 715 l 1xe4
EndSplineSet
EndChar

StartChar: uacute
Encoding: 250 250 119
Width: 456
Flags: W
HStem: -23 73<183 222> 504 20<53 121 121 121 327 395 395 395> 720 20<243 335 335 335>
VStem: 53 68<121.5 153 153 524> 327 68<227 524> 333 62<0 73 73 73>
LayerCount: 2
Fore
SplineSet
395 0 m 1xf8
 333 0 l 1
 333 73 l 1xe4
 295 5 254 -23 190 -23 c 0
 106 -23 53 32 53 120 c 2
 53 524 l 1
 121 524 l 1
 121 153 l 2
 121 90 156 50 210 50 c 0
 281 50 327 120 327 227 c 2
 327 524 l 1
 395 524 l 1
 395 0 l 1xf8
243 740 m 1
 335 740 l 1
 213 592 l 1
 164 592 l 1
 243 740 l 1
EndSplineSet
EndChar

StartChar: ugrave
Encoding: 249 249 120
Width: 456
Flags: W
HStem: -23 73<183 222> 504 20<53 121 121 121 327 395 395 395> 720 20<106 199 199 199>
VStem: 53 68<121.5 153 153 524> 327 68<227 524> 333 62<0 73 73 73>
LayerCount: 2
Fore
SplineSet
395 0 m 1xf8
 333 0 l 1
 333 73 l 1xe4
 295 5 254 -23 190 -23 c 0
 106 -23 53 32 53 120 c 2
 53 524 l 1
 121 524 l 1
 121 153 l 2
 121 90 156 50 210 50 c 0
 281 50 327 120 327 227 c 2
 327 524 l 1
 395 524 l 1
 395 0 l 1xf8
199 740 m 1
 278 592 l 1
 228 592 l 1
 106 740 l 1
 199 740 l 1
EndSplineSet
EndChar

StartChar: ucircumflex
Encoding: 251 251 121
Width: 456
Flags: W
HStem: -23 73<183 222> 504 20<53 121 121 121 327 395 395 395> 721 20<186 263 263 263>
VStem: 53 68<121.5 153 153 524> 327 68<227 524> 333 62<0 73 73 73>
LayerCount: 2
Fore
SplineSet
395 0 m 1xf8
 333 0 l 1
 333 73 l 1xe4
 295 5 254 -23 190 -23 c 0
 106 -23 53 32 53 120 c 2
 53 524 l 1
 121 524 l 1
 121 153 l 2
 121 90 156 50 210 50 c 0
 281 50 327 120 327 227 c 2
 327 524 l 1
 395 524 l 1
 395 0 l 1xf8
186 741 m 1
 263 741 l 1
 342 591 l 1
 291 591 l 1
 225 687 l 1
 160 591 l 1
 107 591 l 1
 186 741 l 1
EndSplineSet
EndChar

StartChar: yacute
Encoding: 253 253 122
Width: 410
Flags: MW
HStem: -218 82<80.5 94.5 74 116> 720 20<222 314 314 314>
LayerCount: 2
Fore
SplineSet
318 524 m 1
 392 524 l 1
 200 -110 l 2
 178 -182 142 -218 90 -218 c 0
 71 -218 58 -214 44 -205 c 1
 44 -130 l 1
 59 -134 68 -136 80 -136 c 0
 109 -136 124 -122 136 -85 c 2
 161 -2 l 1
 16 524 l 1
 90 524 l 1
 199 116 l 1
 318 524 l 1
222 740 m 1
 314 740 l 1
 192 592 l 1
 143 592 l 1
 222 740 l 1
EndSplineSet
EndChar

StartChar: zcaron
Encoding: 382 382 123
Width: 410
Flags: MW
HStem: 0 73<107 374 107 374> 451 73<42 282 42 363> 721 20<87 139 139 139 270 323 323 323>
LayerCount: 2
Fore
SplineSet
363 524 m 1
 363 450 l 1
 107 73 l 1
 374 73 l 1
 374 0 l 1
 25 0 l 1
 25 75 l 1
 282 451 l 1
 42 451 l 1
 42 524 l 1
 363 524 l 1
244 591 m 1
 167 591 l 1
 87 741 l 1
 139 741 l 1
 205 645 l 1
 270 741 l 1
 323 741 l 1
 244 591 l 1
EndSplineSet
EndChar

StartChar: eth
Encoding: 240 240 124
Width: 456
Flags: MW
HStem: -23 77<186 261.5 186 286.5> 462 75<192.5 217.5 192.5 262.5> 723 20<110 110>
VStem: 30 71<195 318> 348 71<194.5 319.5>
LayerCount: 2
Fore
SplineSet
180 613 m 1
 100 569 l 1
 71 608 l 1
 141 647 l 1
 119 667 107 676 74 699 c 1
 110 743 l 1
 133 731 147 722 201 680 c 1
 280 725 l 1
 313 688 l 1
 239 647 l 1
 364 531 419 412 419 260 c 0
 419 79 349 -23 224 -23 c 0
 100 -23 30 79 30 258 c 0
 30 378 60 462 119 506 c 0
 148 527 176 537 209 537 c 0
 226 537 237 534 260 524 c 1
 232 558 224 567 180 613 c 1
224 462 m 0
 148 462 101 384 101 258 c 0
 101 132 148 54 224 54 c 0
 299 54 348 133 348 256 c 0
 348 383 301 462 224 462 c 0
EndSplineSet
EndChar

StartChar: thorn
Encoding: 254 254 125
Width: 456
Flags: MW
HStem: -218 20 -23 78<217 269.5> 461 78<217 270.5>
VStem: 45 68<-218 55 196.5 319.5 459 714> 358 71<196.5 317>
LayerCount: 2
Fore
SplineSet
45 -218 m 1
 45 714 l 1
 113 714 l 1
 113 459 l 1
 143 510 189 539 245 539 c 0
 357 539 429 427 429 252 c 0
 429 86 356 -23 245 -23 c 0
 189 -23 149 1 113 55 c 1
 113 -218 l 1
 45 -218 l 1
233 461 m 0
 160 461 113 381 113 258 c 0
 113 135 160 55 233 55 c 0
 306 55 358 138 358 255 c 0
 358 379 308 461 233 461 c 0
EndSplineSet
EndChar

StartChar: ydieresis
Encoding: 255 255 126
Width: 410
Flags: MW
HStem: -218 82<80.5 94.5 74 116> 612 103<92 177 92 177 92 225 225 310>
VStem: 92 85<612 715 612 715> 225 85<612 715 612 715>
LayerCount: 2
Fore
SplineSet
318 524 m 1
 392 524 l 1
 200 -110 l 2
 178 -182 142 -218 90 -218 c 0
 71 -218 58 -214 44 -205 c 1
 44 -130 l 1
 59 -134 68 -136 80 -136 c 0
 109 -136 124 -122 136 -85 c 2
 161 -2 l 1
 16 524 l 1
 90 524 l 1
 199 116 l 1
 318 524 l 1
177 715 m 1
 177 612 l 1
 92 612 l 1
 92 715 l 1
 177 715 l 1
310 715 m 1
 310 612 l 1
 225 612 l 1
 225 715 l 1
 310 715 l 1
EndSplineSet
EndChar

StartChar: one
Encoding: 49 49 127
Width: 456
Flags: MW
HStem: 0 20
VStem: 213 72<0 505 505 505>
LayerCount: 2
Fore
SplineSet
213 505 m 1
 84 505 l 1
 84 568 l 1
 196 585 213 601 237 709 c 1
 285 709 l 1
 285 0 l 1
 213 0 l 1
 213 505 l 1
EndSplineSet
EndChar

StartChar: two
Encoding: 50 50 128
Width: 456
Flags: MW
HStem: 0 87<110 415 110 415 28 415> 632 77<208 263.5>
VStem: 345 74<470.5 537.5>
LayerCount: 2
Fore
SplineSet
415 87 m 1
 415 0 l 1
 28 0 l 1
 34 156 70 223 191 307 c 2
 267 359 l 2
 319 395 345 442 345 499 c 0
 345 576 296 632 231 632 c 0
 185 632 147 605 129 559 c 0
 120 537 115 509 113 463 c 1
 41 463 l 1
 43 537 52 583 75 621 c 1
 108 680 161 709 233 709 c 0
 343 709 419 624 419 501 c 0
 419 413 378 341 296 287 c 2
 215 233 l 1
 143 182 116 145 110 87 c 1
 415 87 l 1
EndSplineSet
EndChar

StartChar: three
Encoding: 51 51 129
Width: 456
Flags: W
HStem: -23 78<180.5 258 180.5 278> 632 77<197.5 253.5>
VStem: 323 74<476.5 549.5> 341 74<153 240>
LayerCount: 2
Fore
SplineSet
181 325 m 1xd0
 181 400 l 1
 291 402 323 426 323 511 c 0
 323 588 286 632 221 632 c 0
 174 632 138 608 122 566 c 0
 114 545 111 521 111 480 c 1
 38 480 l 1
 41 631 103 709 221 709 c 0
 332 709 397 637 397 512 c 0xe0
 397 441 371 394 316 367 c 1
 386 338 415 288 415 198 c 0
 415 64 338 -23 218 -23 c 0
 96 -23 36 48 26 206 c 1
 99 206 l 1
 103 103 141 55 220 55 c 0
 296 55 341 108 341 198 c 0
 341 282 300 326 221 326 c 1
 190 325 l 1
 181 325 l 1xd0
EndSplineSet
EndChar

StartChar: four
Encoding: 52 52 130
Width: 456
Flags: MW
HStem: 0 20 170 79<86 268 86 268 23 268 86 340 340 426>
VStem: 268 72<0 170 0 170 249 559 559 559>
LayerCount: 2
Fore
SplineSet
268 170 m 1
 23 170 l 1
 23 263 l 1
 287 709 l 1
 340 709 l 1
 340 249 l 1
 426 249 l 1
 426 170 l 1
 340 170 l 1
 340 0 l 1
 268 0 l 1
 268 170 l 1
268 249 m 1
 268 559 l 1
 86 249 l 1
 268 249 l 1
EndSplineSet
EndChar

StartChar: five
Encoding: 53 53 131
Width: 456
Flags: MW
HStem: -23 78<188.5 260 188.5 280.5> 389 78<212.5 260> 622 87<149 391 149 149>
VStem: 347 74<167.5 272>
LayerCount: 2
Fore
SplineSet
391 709 m 1
 391 622 l 1
 149 622 l 1
 126 424 l 1
 160 454 192 467 233 467 c 0
 345 467 421 372 421 231 c 0
 421 80 340 -23 221 -23 c 0
 154 -23 94 11 61 67 c 0
 47 92 38 119 29 174 c 1
 102 174 l 1
 118 94 157 55 220 55 c 0
 300 55 347 116 347 219 c 0
 347 325 299 389 221 389 c 0
 175 389 148 372 114 323 c 1
 48 323 l 1
 91 709 l 1
 391 709 l 1
EndSplineSet
EndChar

StartChar: six
Encoding: 54 54 132
Width: 456
Flags: MW
HStem: -23 78<197 264 197 286> 363 78<213.5 268> 631 78<211 264>
VStem: 35 78<208.5 258.5 168 388> 347 74<165 256>
LayerCount: 2
Fore
SplineSet
408 524 m 1
 336 524 l 1
 325 592 289 631 239 631 c 0
 155 631 109 535 109 362 c 1
 140 414 185 441 242 441 c 0
 346 441 421 347 421 217 c 0
 421 78 341 -23 231 -23 c 0
 101 -23 35 93 35 324 c 0
 35 452 51 538 88 608 c 0
 121 671 179 709 243 709 c 0
 332 709 394 639 408 524 c 1
233 363 m 0
 162 363 113 303 113 214 c 0
 113 122 163 55 231 55 c 0
 297 55 347 121 347 209 c 0
 347 303 303 363 233 363 c 0
EndSplineSet
EndChar

StartChar: seven
Encoding: 55 55 133
Width: 456
Flags: MW
HStem: 0 20 622 87<38 352 38 427>
LayerCount: 2
Fore
SplineSet
427 709 m 1
 427 635 l 1
 295 422 222 225 191 0 c 1
 114 0 l 1
 157 232 214 382 352 622 c 1
 38 622 l 1
 38 709 l 1
 427 709 l 1
EndSplineSet
EndChar

StartChar: eight
Encoding: 56 56 134
Width: 456
Flags: W
HStem: -23 78<188 260.5 188 283> 334 74<194.5 255.5 194.5 261.5> 631 78<194 256>
VStem: 30 74<153.5 236.5 153.5 236.5> 51 74<486.5 553.5 485 576.5> 326 74<487 552.5> 346 74<152.5 236.5 131.5 237>
LayerCount: 2
Fore
SplineSet
321 373 m 1xec
 388 333 420 276 420 197 c 0
 420 66 341 -23 225 -23 c 0
 110 -23 30 67 30 197 c 0xf2
 30 276 63 334 130 373 c 1
 69 418 51 452 51 521 c 0
 51 632 122 709 225 709 c 0
 328 709 400 631 400 520 c 0
 400 454 381 418 321 373 c 1xec
225 631 m 0xec
 163 631 125 588 125 519 c 0
 125 451 164 408 225 408 c 0
 286 408 326 452 326 518 c 0
 326 587 287 631 225 631 c 0xec
225 334 m 0xf2
 152 334 104 278 104 195 c 0
 104 112 153 55 223 55 c 0
 298 55 346 110 346 195 c 0
 346 279 298 334 225 334 c 0xf2
EndSplineSet
EndChar

StartChar: nine
Encoding: 57 57 135
Width: 456
Flags: MW
HStem: -23 78<187.5 240> 245 78<183 237> 632 77<186.5 254.5>
VStem: 31 74<429.5 522 429.5 540> 338 79<427.5 478 297.5 518.5>
LayerCount: 2
Fore
SplineSet
43 162 m 1
 115 162 l 1
 127 93 162 55 213 55 c 0
 296 55 342 151 343 324 c 1
 305 269 265 245 209 245 c 0
 104 245 31 337 31 470 c 0
 31 610 110 709 221 709 c 0
 352 709 417 594 417 362 c 0
 417 233 401 148 364 78 c 0
 331 15 272 -23 208 -23 c 0
 119 -23 58 46 43 162 c 1
220 632 m 0
 153 632 105 567 105 477 c 0
 105 382 148 323 218 323 c 0
 290 323 338 383 338 472 c 0
 338 565 289 632 220 632 c 0
EndSplineSet
EndChar

StartChar: zero
Encoding: 48 48 136
Width: 456
Flags: MW
HStem: -23 73<185.5 264.5 185.5 287> 631 78<198 252.5 198 264.5>
VStem: 35 74<245 408.5> 341 74<243.5 407.5 220.5 442.5>
LayerCount: 2
Fore
SplineSet
225 709 m 0
 280 709 329 680 359 631 c 0
 398 566 415 477 415 338 c 0
 415 103 349 -23 225 -23 c 0
 101 -23 35 103 35 343 c 0
 35 474 54 569 92 631 c 0
 122 680 171 709 225 709 c 0
225 631 m 0
 147 631 109 537 109 343 c 0
 109 147 147 50 224 50 c 0
 305 50 341 141 341 346 c 0
 341 539 304 631 225 631 c 0
EndSplineSet
EndChar

StartChar: sterling
Encoding: 163 163 137
Width: 456
Flags: W
HStem: -23 92<328.5 347 328.5 352.5> -14 20 23 77<142.5 215> 321 55<21 88 21 111 21 88 188 300 188 188> 651 78<200.5 271.5>
VStem: 44 76<505.5 562 505.5 576> 131 70<223.5 255.5>
LayerCount: 2
Fore
SplineSet
300 376 m 1x7e
 300 321 l 1
 188 321 l 1
 196 294 201 269 201 249 c 0
 201 198 177 152 104 61 c 1
 136 87 169 100 204 100 c 0x36
 226 100 240 97 271 85 c 0
 307 72 321 69 336 69 c 0
 358 69 380 79 404 99 c 1
 439 33 l 1
 406 -6 374 -23 331 -23 c 0x86
 301 -23 279 -17 211 12 c 0
 194 19 175 23 157 23 c 0
 128 23 100 11 68 -14 c 1
 28 52 l 1
 104 131 131 181 131 243 c 0
 131 268 124 296 111 321 c 1
 21 321 l 1
 21 376 l 1
 88 376 l 1
 50 453 44 470 44 516 c 0
 44 636 129 729 240 729 c 0
 312 729 371 690 399 624 c 0
 413 592 419 554 420 497 c 1
 348 497 l 1
 345 601 308 651 235 651 c 0
 166 651 120 600 120 524 c 0
 120 487 126 468 156 404 c 0
 160 395 165 386 169 376 c 1
 300 376 l 1x7e
EndSplineSet
EndChar

StartChar: dollar
Encoding: 36 36 138
Width: 456
Flags: MW
VStem: 37 66<496 541.5 496 572> 199 48<-126 -23 -126 -23 46 309 405 645 645 645 716 770> 357 67<155 216>
LayerCount: 2
Fore
SplineSet
199 770 m 1
 247 770 l 1
 247 716 l 1
 347 707 406 634 406 519 c 1
 341 519 l 1
 340 592 302 643 247 646 c 1
 247 397 l 1
 325 368 336 363 358 347 c 0
 403 314 424 265 424 196 c 0
 424 114 395 45 345 10 c 0
 318 -10 290 -19 247 -23 c 1
 247 -126 l 1
 199 -126 l 1
 199 -23 l 1
 83 -14 21 69 27 208 c 1
 92 208 l 1
 95 103 122 63 199 46 c 1
 199 318 l 1
 138 340 115 352 92 373 c 0
 56 406 37 456 37 515 c 0
 37 629 95 700 199 716 c 1
 199 770 l 1
199 405 m 1
 199 645 l 1
 168 640 151 631 134 613 c 0
 116 593 103 557 103 526 c 0
 103 466 135 426 199 405 c 1
247 309 m 1
 247 46 l 1
 315 54 357 107 357 183 c 0
 357 249 331 279 247 309 c 1
EndSplineSet
EndChar

StartChar: cent
Encoding: 162 162 139
Width: 456
Flags: MW
VStem: 43 71<197 312.5 197 334.5> 222 34<-120 -23 -120 -22 -120 -22 55 461 461 461 539 628>
LayerCount: 2
Fore
SplineSet
256 462 m 1
 256 53 l 1
 309 60 339 101 350 180 c 1
 418 180 l 1
 412 60 351 -17 256 -23 c 1
 256 -120 l 1
 222 -120 l 1
 222 -22 l 1
 111 -10 43 94 43 253 c 0
 43 416 111 524 222 538 c 1
 222 628 l 1
 256 628 l 1
 256 539 l 1
 352 531 409 462 414 348 c 1
 345 348 l 1
 339 415 306 457 256 462 c 1
222 55 m 1
 222 461 l 1
 152 445 114 372 114 253 c 0
 114 141 154 68 222 55 c 1
EndSplineSet
EndChar

StartChar: florin
Encoding: 402 402 140
Width: 456
Flags: MW
HStem: -212 78<56 75> 392 70<115 207 115 218 290 383 115 279> 658 80<363.5 384>
LayerCount: 2
Fore
SplineSet
383 462 m 1
 383 392 l 1
 279 392 l 1
 219 -5 l 2
 208 -74 192 -120 165 -155 c 0
 139 -190 96 -212 54 -212 c 0
 34 -212 21 -209 9 -202 c 1
 23 -118 l 1
 37 -130 48 -134 64 -134 c 0
 107 -134 131 -99 143 -21 c 2
 207 392 l 1
 115 392 l 1
 115 462 l 1
 218 462 l 1
 235 566 l 2
 245 623 260 661 286 690 c 1
 311 720 347 738 380 738 c 0
 401 738 419 733 444 719 c 1
 420 640 l 1
 399 654 391 658 377 658 c 0
 339 658 312 614 301 532 c 1
 290 462 l 1
 383 462 l 1
EndSplineSet
EndChar

StartChar: Euro
Encoding: 8364 8364 141
Width: 456
Flags: MW
HStem: -22 78<241 293 241 295> 254 59<26 65 26 70 8 65 144 299 144 144> 379 59<26 66 8 72 146 340> 633 76<254.5 292.5>
LayerCount: 2
Fore
SplineSet
146 438 m 1
 359 438 l 1
 340 379 l 1
 139 379 l 1
 138 373 138 355 138 316 c 2
 138 313 l 1
 318 313 l 1
 299 254 l 1
 144 254 l 1
 145 251 145 251 145 248 c 0
 161 126 208 56 274 56 c 0
 312 56 337 68 401 117 c 1
 401 24 l 1
 361 -7 319 -22 271 -22 c 0
 162 -22 90 77 70 254 c 1
 8 254 l 1
 26 313 l 1
 65 313 l 1
 65 340 l 1
 66 379 l 1
 8 379 l 1
 26 438 l 1
 72 438 l 1
 78 500 95 556 123 608 c 0
 159 676 210 709 277 709 c 0
 331 709 375 689 426 642 c 1
 400 562 l 1
 345 615 312 633 273 633 c 0
 236 633 206 612 184 571 c 0
 164 534 151 487 146 442 c 1
 146 438 l 1
EndSplineSet
EndChar

StartChar: yen
Encoding: 165 165 142
Width: 456
Flags: MW
HStem: 0 20 175 51<53 194 53 194 266 406> 303 51<53 177 53 194 53 177 281 406>
VStem: 194 72<0 175 0 175 226 303>
LayerCount: 2
Fore
SplineSet
406 354 m 1
 406 303 l 1
 266 303 l 1
 266 226 l 1
 406 226 l 1
 406 175 l 1
 266 175 l 1
 266 0 l 1
 194 0 l 1
 194 175 l 1
 53 175 l 1
 53 226 l 1
 194 226 l 1
 194 303 l 1
 53 303 l 1
 53 354 l 1
 177 354 l 1
 9 709 l 1
 79 709 l 1
 230 387 l 1
 377 709 l 1
 447 709 l 1
 281 354 l 1
 406 354 l 1
EndSplineSet
EndChar

StartChar: onesuperior
Encoding: 185 185 143
Width: 273
Flags: MW
VStem: 126 51<284 580 580 580>
LayerCount: 2
Fore
SplineSet
126 580 m 1
 45 580 l 1
 45 626 l 1
 57 627 l 1
 116 634 127 645 142 709 c 1
 177 709 l 1
 177 284 l 1
 126 284 l 1
 126 580 l 1
EndSplineSet
EndChar

StartChar: twosuperior
Encoding: 178 178 144
Width: 273
Flags: MW
HStem: 284 58<70 258 70 258> 656 53<125.5 159>
VStem: 208 52<565 603.5>
LayerCount: 2
Fore
SplineSet
258 342 m 1
 258 284 l 1
 9 284 l 1
 11 379 35 421 113 471 c 2
 161 502 l 2
 194 524 208 548 208 582 c 0
 208 625 179 656 139 656 c 0
 112 656 88 641 77 615 c 0
 72 602 69 587 68 557 c 1
 17 557 l 1
 19 659 59 709 141 709 c 0
 211 709 260 658 260 583 c 0
 260 529 234 486 182 454 c 2
 130 422 l 1
 95 399 80 379 70 342 c 1
 258 342 l 1
EndSplineSet
EndChar

StartChar: threesuperior
Encoding: 179 179 145
Width: 273
Flags: W
HStem: 270 53<109.5 158 109.5 171.5> 656 53<120 153.5>
VStem: 196 52<569.5 609.5> 207 52<378 428.5>
LayerCount: 2
Fore
SplineSet
106 476 m 1xd0
 106 527 l 1
 177 527 196 540 196 588 c 0
 196 631 173 656 134 656 c 0
 106 656 84 642 74 619 c 0
 69 607 67 594 67 567 c 1
 16 567 l 1
 17 660 57 709 134 709 c 0
 205 709 248 663 248 589 c 0xe0
 248 550 232 521 201 504 c 1
 241 488 259 456 259 404 c 0
 259 322 210 270 133 270 c 0
 53 270 11 318 8 412 c 1
 59 412 l 1
 62 349 84 323 135 323 c 0
 181 323 207 352 207 404 c 0
 207 453 183 476 132 476 c 2
 113 476 l 1
 106 476 l 1xd0
EndSplineSet
EndChar

StartChar: period
Encoding: 46 46 146
Width: 228
Flags: MW
HStem: 0 104<71 156 71 156>
VStem: 71 85<0 104 0 104>
LayerCount: 2
Fore
SplineSet
156 104 m 1
 156 0 l 1
 71 0 l 1
 71 104 l 1
 156 104 l 1
EndSplineSet
EndChar

StartChar: colon
Encoding: 58 58 147
Width: 228
Flags: MW
HStem: 0 104<90 175 90 175> 420 104<90 175 90 175>
VStem: 90 85<0 104 0 104 420 524>
LayerCount: 2
Fore
SplineSet
175 104 m 1
 175 0 l 1
 90 0 l 1
 90 104 l 1
 175 104 l 1
175 524 m 1
 175 420 l 1
 90 420 l 1
 90 524 l 1
 175 524 l 1
EndSplineSet
EndChar

StartChar: periodcentered
Encoding: 183 183 148
Width: 228
Flags: MW
HStem: 302 125<71 173 71 173>
VStem: 71 102<302 427 302 427>
LayerCount: 2
Fore
SplineSet
173 427 m 1
 173 302 l 1
 71 302 l 1
 71 427 l 1
 173 427 l 1
EndSplineSet
EndChar

StartChar: middot
Encoding: 183 183 149
Width: 228
Flags: MW
HStem: 302 125<71 173 71 173>
VStem: 71 102<302 427 302 427>
LayerCount: 2
Fore
SplineSet
173 427 m 1
 173 302 l 1
 71 302 l 1
 71 427 l 1
 173 427 l 1
EndSplineSet
EndChar

StartChar: ellipsis
Encoding: 8230 8230 150
Width: 820
Flags: MW
HStem: 0 104<94 179 94 179 367 452 640 725>
VStem: 94 85<0 104 0 104> 367 85<0 104 0 104> 640 85<0 104 0 104>
LayerCount: 2
Fore
SplineSet
179 104 m 1
 179 0 l 1
 94 0 l 1
 94 104 l 1
 179 104 l 1
452 104 m 1
 452 0 l 1
 367 0 l 1
 367 104 l 1
 452 104 l 1
725 104 m 1
 725 0 l 1
 640 0 l 1
 640 104 l 1
 725 104 l 1
EndSplineSet
EndChar

StartChar: comma
Encoding: 44 44 151
Width: 228
Flags: MW
HStem: 0 104<71 120 71 157>
LayerCount: 2
Fore
SplineSet
71 104 m 1
 157 104 l 1
 157 -16 l 2
 157 -102 128 -147 71 -147 c 1
 71 -109 l 1
 109 -107 120 -86 120 -18 c 2
 120 0 l 1
 71 0 l 1
 71 104 l 1
EndSplineSet
EndChar

StartChar: semicolon
Encoding: 59 59 152
Width: 228
Flags: MW
HStem: 0 104<90 139 90 176> 420 104<91 176 91 176>
VStem: 91 85<420 524>
LayerCount: 2
Fore
SplineSet
176 524 m 1
 176 420 l 1
 91 420 l 1
 91 524 l 1
 176 524 l 1
90 104 m 1
 176 104 l 1
 176 -16 l 2
 176 -102 147 -147 90 -147 c 1
 90 -109 l 1
 128 -107 139 -86 139 -18 c 2
 139 0 l 1
 90 0 l 1
 90 104 l 1
EndSplineSet
EndChar

StartChar: quoteleft
Encoding: 8216 8216 153
Width: 182
Flags: MW
HStem: 477 104<90 129 90 129 53 129>
VStem: 53 76<477 578 578 581>
LayerCount: 2
Fore
SplineSet
129 477 m 1
 53 477 l 1
 53 578 l 2
 53 657 80 704 129 709 c 1
 129 671 l 1
 101 666 89 639 90 581 c 1
 129 581 l 1
 129 477 l 1
EndSplineSet
EndChar

StartChar: quotedblright
Encoding: 8221 8221 154
Width: 273
Flags: MW
HStem: 605 104<40 79 40 116 40 171 171 210>
VStem: 40 76<477 608 515 608 605 608 608 709> 171 76<477 608 515 608 605 608 608 709>
LayerCount: 2
Fore
SplineSet
40 709 m 1
 116 709 l 1
 116 608 l 2
 116 528 89 482 40 477 c 1
 40 515 l 1
 69 520 80 547 79 605 c 1
 40 605 l 1
 40 709 l 1
171 709 m 1
 247 709 l 1
 247 608 l 2
 247 528 220 482 171 477 c 1
 171 515 l 1
 200 520 211 547 210 605 c 1
 171 605 l 1
 171 709 l 1
EndSplineSet
EndChar

StartChar: quotedblleft
Encoding: 8220 8220 155
Width: 273
Flags: MW
HStem: 477 104<76 115 76 115 39 115 76 169 206 245>
VStem: 39 76<477 578 578 581> 169 76<477 578 578 581>
LayerCount: 2
Fore
SplineSet
115 477 m 1
 39 477 l 1
 39 578 l 2
 39 657 66 704 115 709 c 1
 115 671 l 1
 87 666 75 639 76 581 c 1
 115 581 l 1
 115 477 l 1
245 477 m 1
 169 477 l 1
 169 578 l 2
 169 657 196 704 245 709 c 1
 245 671 l 1
 217 666 205 638 206 581 c 1
 245 581 l 1
 245 477 l 1
EndSplineSet
EndChar

StartChar: quotedblbase
Encoding: 8222 8222 156
Width: 273
Flags: MW
HStem: 0 104<39 78 39 115 39 170 170 209>
VStem: 39 76<-128 3 -90 3 0 3 3 104> 170 76<-128 3 -90 3 0 3 3 104>
LayerCount: 2
Fore
SplineSet
39 104 m 1
 115 104 l 1
 115 3 l 2
 115 -77 88 -123 39 -128 c 1
 39 -90 l 1
 68 -85 79 -58 78 0 c 1
 39 0 l 1
 39 104 l 1
170 104 m 1
 246 104 l 1
 246 3 l 2
 246 -77 219 -123 170 -128 c 1
 170 -90 l 1
 199 -85 210 -58 209 0 c 1
 170 0 l 1
 170 104 l 1
EndSplineSet
EndChar

StartChar: exclam
Encoding: 33 33 157
Width: 228
Flags: W
HStem: 0 104<102 171 102 171> 709 20<102 170 170 170>
VStem: 102 68<391 729 391 729> 102 69<0 104 0 104>
LayerCount: 2
Fore
SplineSet
170 729 m 1xe0
 170 391 l 1
 152 168 l 1
 120 168 l 1
 102 391 l 1
 102 729 l 1
 170 729 l 1xe0
171 104 m 1xd0
 171 0 l 1
 102 0 l 1
 102 104 l 1
 171 104 l 1xd0
EndSplineSet
EndChar

StartChar: exclamdown
Encoding: 161 161 158
Width: 273
Flags: W
HStem: 420 104<99 168 99 168>
VStem: 99 68<-205 133 -205 133> 99 69<420 524 420 524>
LayerCount: 2
Fore
SplineSet
99 -205 m 1xc0
 99 133 l 1
 117 356 l 1
 149 356 l 1
 167 133 l 1
 167 -205 l 1
 99 -205 l 1xc0
99 420 m 1xa0
 99 524 l 1
 168 524 l 1
 168 420 l 1
 99 420 l 1xa0
EndSplineSet
EndChar

StartChar: question
Encoding: 63 63 159
Width: 456
Flags: MW
HStem: 0 104<197 271 197 271> 663 78<202 270.5>
VStem: 197 74<0 104 0 104 199 246> 344 74<526 583.5>
LayerCount: 2
Fore
SplineSet
271 199 m 1
 197 199 l 1
 197 254 l 2
 197 315 207 333 283 417 c 0
 326 464 344 503 344 549 c 0
 344 618 302 663 239 663 c 0
 165 663 133 616 133 507 c 1
 63 507 l 1
 63 662 124 741 243 741 c 0
 350 741 418 666 418 549 c 0
 418 483 397 438 336 370 c 0
 280 307 271 291 271 246 c 2
 271 199 l 1
271 104 m 1
 271 0 l 1
 197 0 l 1
 197 104 l 1
 271 104 l 1
EndSplineSet
EndChar

StartChar: questiondown
Encoding: 191 191 160
Width: 501
Flags: MW
HStem: -217 78<226 295 226 313.5> 420 104<226 300 226 300>
VStem: 78 74<-59 -2 -59 8> 226 74<278 325 239.5 325 420 524>
LayerCount: 2
Fore
SplineSet
226 325 m 1
 300 325 l 1
 300 270 l 2
 300 209 290 191 214 107 c 0
 171 60 152 21 152 -25 c 0
 152 -93 194 -139 258 -139 c 0
 332 -139 364 -92 364 17 c 1
 434 17 l 1
 434 -138 373 -217 254 -217 c 0
 147 -217 78 -142 78 -25 c 0
 78 41 99 86 161 154 c 1
 217 217 226 233 226 278 c 2
 226 325 l 1
226 420 m 1
 226 524 l 1
 300 524 l 1
 300 420 l 1
 226 420 l 1
EndSplineSet
EndChar

StartChar: guillemotright
Encoding: 187 187 161
Width: 456
Flags: W
LayerCount: 2
Fore
SplineSet
206 317 m 1
 206 228 l 1
 80 106 l 1
 80 189 l 1
 168 272 l 1
 80 355 l 1
 80 438 l 1
 206 317 l 1
369 317 m 1
 369 228 l 1
 243 106 l 1
 243 189 l 1
 331 272 l 1
 243 355 l 1
 243 438 l 1
 369 317 l 1
EndSplineSet
EndChar

StartChar: guillemotleft
Encoding: 171 171 162
Width: 456
Flags: W
LayerCount: 2
Fore
SplineSet
80 227 m 1
 80 316 l 1
 205 438 l 1
 205 355 l 1
 118 272 l 1
 205 189 l 1
 205 106 l 1
 80 227 l 1
248 227 m 1
 248 316 l 1
 373 438 l 1
 373 355 l 1
 286 272 l 1
 373 189 l 1
 373 106 l 1
 248 227 l 1
EndSplineSet
EndChar

StartChar: guilsinglright
Encoding: 8250 8250 163
Width: 273
Flags: W
LayerCount: 2
Fore
SplineSet
196 317 m 1
 196 228 l 1
 70 106 l 1
 70 189 l 1
 158 272 l 1
 70 355 l 1
 70 438 l 1
 196 317 l 1
EndSplineSet
EndChar

StartChar: guilsinglleft
Encoding: 8249 8249 164
Width: 273
Flags: W
LayerCount: 2
Fore
SplineSet
75 227 m 1
 75 316 l 1
 200 438 l 1
 200 355 l 1
 113 272 l 1
 200 189 l 1
 200 106 l 1
 75 227 l 1
EndSplineSet
EndChar

StartChar: slash
Encoding: 47 47 165
Width: 228
Flags: MW
HStem: -20 20 709 20<187 232 232 232>
LayerCount: 2
Fore
SplineSet
187 729 m 1
 232 729 l 1
 38 -20 l 1
 -7 -20 l 1
 187 729 l 1
EndSplineSet
EndChar

StartChar: hyphen
Encoding: 45 45 166
Width: 273
Flags: MW
HStem: 240 72<38 233 38 233>
VStem: 38 195<240 312 240 312>
LayerCount: 2
Fore
SplineSet
233 312 m 1
 233 240 l 1
 38 240 l 1
 38 312 l 1
 233 312 l 1
EndSplineSet
EndChar

StartChar: sfthyphen
Encoding: 173 173 167
Width: 273
Flags: MW
HStem: 240 72<38 233 38 233>
VStem: 38 195<240 312 240 312>
LayerCount: 2
Fore
SplineSet
233 312 m 1
 233 240 l 1
 38 240 l 1
 38 312 l 1
 233 312 l 1
EndSplineSet
EndChar

StartChar: endash
Encoding: 8211 8211 168
Width: 456
Flags: MW
HStem: 240 72<-4 460 -4 460>
LayerCount: 2
Fore
SplineSet
460 312 m 1
 460 240 l 1
 -4 240 l 1
 -4 312 l 1
 460 312 l 1
EndSplineSet
EndChar

StartChar: emdash
Encoding: 8212 8212 169
Width: 820
Flags: MW
HStem: 240 72<-7 821 -7 821>
LayerCount: 2
Fore
SplineSet
821 312 m 1
 821 240 l 1
 -7 240 l 1
 -7 312 l 1
 821 312 l 1
EndSplineSet
EndChar

StartChar: parenleft
Encoding: 40 40 170
Width: 273
Flags: MW
HStem: 709 20<194 239 239 239>
VStem: 60 66<180 337.5>
LayerCount: 2
Fore
SplineSet
194 729 m 1
 239 729 l 1
 167 589 126 416 126 259 c 0
 126 101 167 -71 239 -212 c 1
 194 -212 l 1
 112 -81 60 101 60 259 c 0
 60 416 112 598 194 729 c 1
EndSplineSet
EndChar

StartChar: parenright
Encoding: 41 41 171
Width: 273
Flags: MW
HStem: 709 20<31 76 76 76>
VStem: 144 66<180 336.5>
LayerCount: 2
Fore
SplineSet
76 -212 m 1
 31 -212 l 1
 103 -70 144 102 144 258 c 0
 144 415 103 586 31 729 c 1
 76 729 l 1
 158 598 210 415 210 258 c 0
 210 101 158 -81 76 -212 c 1
EndSplineSet
EndChar

StartChar: bracketleft
Encoding: 91 91 172
Width: 228
Flags: MW
HStem: -212 72<120 205 120 205 52 205> 657 72<120 205 120 120>
VStem: 52 68<-140 657 -140 729>
LayerCount: 2
Fore
SplineSet
205 729 m 1
 205 657 l 1
 120 657 l 1
 120 -140 l 1
 205 -140 l 1
 205 -212 l 1
 52 -212 l 1
 52 729 l 1
 205 729 l 1
EndSplineSet
EndChar

StartChar: bracketright
Encoding: 93 93 173
Width: 228
Flags: MW
HStem: -212 72<19 104 19 104 19 172> 657 72<19 104 19 172>
VStem: 104 68<-140 657 657 657>
LayerCount: 2
Fore
SplineSet
19 -212 m 1
 19 -140 l 1
 104 -140 l 1
 104 657 l 1
 19 657 l 1
 19 729 l 1
 172 729 l 1
 172 -212 l 1
 19 -212 l 1
EndSplineSet
EndChar

StartChar: ampersand
Encoding: 38 38 174
Width: 547
Flags: W
HStem: -23 78<190 231> 639 70<226 268>
VStem: 43 69<147.5 211.5 147.5 222.5> 109 67<536 578.5 536 596> 318 65<533 579>
LayerCount: 2
Fore
SplineSet
405 334 m 1xd8
 470 334 l 1
 470 273 453 207 423 151 c 1
 523 0 l 1
 434 0 l 1
 382 78 l 1
 349 38 335 24 317 10 c 0
 288 -11 250 -23 212 -23 c 0
 110 -23 43 56 43 177 c 0xe0
 43 268 74 317 176 389 c 1
 125 466 109 506 109 552 c 0
 109 640 171 709 250 709 c 0
 328 709 383 644 383 552 c 0
 383 480 355 437 270 378 c 1
 379 215 l 1
 395 250 406 299 405 334 c 1xd8
234 431 m 1xd8
 239 435 239 435 245 439 c 0
 296 478 318 512 318 554 c 0
 318 604 289 639 247 639 c 0
 205 639 176 604 176 553 c 0
 176 519 184 501 234 431 c 1xd8
343 137 m 1xe0
 212 337 l 1
 137 278 112 240 112 183 c 0
 112 112 160 55 220 55 c 0
 262 55 297 78 343 137 c 1xe0
EndSplineSet
EndChar

StartChar: section
Encoding: 167 167 175
Width: 456
Flags: W
HStem: -213 77<202.5 240.5 202.5 260> 652 77<212 257.5>
VStem: 36 65<308 345.5> 86 74<552 592 552 610> 295 74<-75.5 -32.5> 350 65<191 229.5>
LayerCount: 2
Fore
SplineSet
381 524 m 1xd0
 312 524 l 1
 312 533 l 1
 312 547 l 2
 312 612 282 652 233 652 c 0
 191 652 160 617 160 567 c 0
 160 537 172 518 207 490 c 2
 326 396 l 2
 391 345 415 300 415 229 c 0xd4
 415 153 385 100 326 73 c 1
 358 27 369 -2 369 -45 c 0
 369 -142 304 -213 216 -213 c 0
 126 -213 64 -140 64 -34 c 2
 64 -26 l 1
 64 -14 l 1
 134 -14 l 1
 134 -54 137 -74 149 -94 c 0
 165 -122 188 -136 217 -136 c 0
 264 -136 295 -101 295 -50 c 0
 295 -15 282 12 251 38 c 2
 112 155 l 2
 58 200 36 246 36 312 c 0xe8
 36 379 62 423 122 462 c 1
 96 498 86 526 86 564 c 0
 86 656 152 729 237 729 c 0
 323 729 381 658 381 552 c 2
 381 532 l 1
 381 524 l 1xd0
155 229 m 2xe4
 291 106 l 1
 329 131 350 167 350 209 c 0
 350 250 330 287 291 320 c 2
 159 429 l 1
 116 395 101 369 101 329 c 0
 101 287 112 268 155 229 c 2xe4
EndSplineSet
EndChar

StartChar: dagger
Encoding: 8224 8224 176
Width: 456
Flags: MW
HStem: 420 82<31 189 31 189 261 420 31 261>
VStem: 189 72<-177 420 -177 420 502 709>
LayerCount: 2
Fore
SplineSet
420 502 m 1
 420 420 l 1
 261 420 l 1
 261 -177 l 1
 189 -177 l 1
 189 420 l 1
 31 420 l 1
 31 502 l 1
 189 502 l 1
 189 709 l 1
 261 709 l 1
 261 502 l 1
 420 502 l 1
EndSplineSet
EndChar

StartChar: daggerdbl
Encoding: 8225 8225 177
Width: 456
Flags: MW
HStem: 31 82<31 189 31 189 261 420 31 261> 420 82<31 189 31 189 261 420 31 261>
VStem: 189 72<-177 31 -177 31 113 420 502 709>
LayerCount: 2
Fore
SplineSet
420 502 m 1
 420 420 l 1
 261 420 l 1
 261 113 l 1
 420 113 l 1
 420 31 l 1
 261 31 l 1
 261 -177 l 1
 189 -177 l 1
 189 31 l 1
 31 31 l 1
 31 113 l 1
 189 113 l 1
 189 420 l 1
 31 420 l 1
 31 502 l 1
 189 502 l 1
 189 709 l 1
 261 709 l 1
 261 502 l 1
 420 502 l 1
EndSplineSet
EndChar

StartChar: asterisk
Encoding: 42 42 178
Width: 319
Flags: MW
HStem: 514 20<157 157> 709 20<132 183 183 183>
LayerCount: 2
Fore
SplineSet
132 729 m 1
 183 729 l 1
 179 617 l 1
 266 655 l 1
 281 596 l 1
 193 566 l 1
 250 477 l 1
 209 441 l 1
 157 534 l 1
 106 441 l 1
 65 477 l 1
 122 566 l 1
 33 596 l 1
 49 655 l 1
 135 617 l 1
 132 729 l 1
EndSplineSet
EndChar

StartChar: quotesingle
Encoding: 39 39 179
Width: 157
Flags: MW
VStem: 39 77<598 709 598 709>
LayerCount: 2
Fore
SplineSet
39 709 m 1
 116 709 l 1
 116 598 l 1
 94 464 l 1
 61 464 l 1
 39 598 l 1
 39 709 l 1
EndSplineSet
EndChar

StartChar: quotedbl
Encoding: 34 34 180
Width: 291
Flags: MW
VStem: 43 76<598 709 598 709> 174 76<598 709 598 709>
LayerCount: 2
Fore
SplineSet
43 709 m 1
 119 709 l 1
 119 598 l 1
 97 464 l 1
 65 464 l 1
 43 598 l 1
 43 709 l 1
174 709 m 1
 250 709 l 1
 250 598 l 1
 228 464 l 1
 196 464 l 1
 174 598 l 1
 174 709 l 1
EndSplineSet
EndChar

StartChar: at
Encoding: 64 64 181
Width: 832
Flags: W
HStem: -75 77<329.5 433 329.5 436.5> 120 72<557 586 557 589.5> 125 64<358.5 383.5> 511 64<396 450> 712 77<390.5 501>
VStem: 50 70<238 382.5> 230 74<272 358.5 272 376.5> 701 71<388 494.5>
LayerCount: 2
Fore
SplineSet
545 554 m 1x37
 613 554 l 1
 540 303 l 2
 536 289 534 271 534 254 c 0
 534 214 546 192 568 192 c 0
 604 192 645 220 665 258 c 0
 687 300 701 362 701 414 c 0
 701 575 575 712 427 712 c 0
 261 712 120 536 120 331 c 0
 120 145 247 2 412 2 c 0
 454 2 498 11 563 34 c 1
 586 -33 l 1
 529 -60 465 -75 408 -75 c 0
 208 -75 50 99 50 321 c 0
 50 444 98 577 174 663 c 0
 244 741 344 789 437 789 c 0
 620 789 772 624 772 425 c 0
 772 346 746 264 702 202 c 0
 663 146 618 120 561 120 c 0xdf
 511 120 483 146 476 197 c 1
 439 146 405 125 362 125 c 0
 286 125 230 202 230 306 c 0
 230 447 327 575 434 575 c 0
 476 575 500 558 531 506 c 1
 545 554 l 1x37
428 511 m 0
 364 511 304 412 304 305 c 0
 304 239 337 189 380 189 c 0x37
 410 189 439 213 460 255 c 0
 478 290 501 381 501 417 c 0
 501 473 472 511 428 511 c 0
EndSplineSet
EndChar

StartChar: numbersign
Encoding: 35 35 182
Width: 456
Flags: MW
HStem: -20 20 191 68<12 95 12 105 168 260 12 157 333 419> 433 68<42 131 42 142 42 194 204 296 369 445>
LayerCount: 2
Fore
SplineSet
398 697 m 1
 369 501 l 1
 445 501 l 1
 445 433 l 1
 359 433 l 1
 333 259 l 1
 419 259 l 1
 419 191 l 1
 323 191 l 1
 291 -20 l 1
 228 -20 l 1
 260 191 l 1
 157 191 l 1
 126 -20 l 1
 63 -20 l 1
 95 191 l 1
 12 191 l 1
 12 259 l 1
 105 259 l 1
 131 433 l 1
 42 433 l 1
 42 501 l 1
 142 501 l 1
 171 697 l 1
 233 697 l 1
 204 501 l 1
 306 501 l 1
 336 697 l 1
 398 697 l 1
296 433 m 1
 194 433 l 1
 168 259 l 1
 270 259 l 1
 296 433 l 1
EndSplineSet
EndChar

StartChar: degree
Encoding: 176 176 183
Width: 328
Flags: MW
HStem: 383 57<142 185.5 142 198> 629 57<142.5 186>
VStem: 40 47<509 561 509 576.5> 241 47<508 561.5>
LayerCount: 2
Fore
SplineSet
164 686 m 0
 233 686 288 619 288 535 c 0
 288 449 233 383 163 383 c 0
 96 383 40 452 40 535 c 0
 40 618 96 686 164 686 c 0
164 629 m 0
 121 629 87 587 87 535 c 0
 87 483 121 440 163 440 c 0
 208 440 241 481 241 535 c 0
 241 588 208 629 164 629 c 0
EndSplineSet
EndChar

StartChar: plus
Encoding: 43 43 184
Width: 479
Flags: MW
HStem: -10 20 197 70<41 211 41 211 268 438 41 268>
VStem: 211 57<-10 197 -10 197 267 474>
LayerCount: 2
Fore
SplineSet
438 267 m 1
 438 197 l 1
 268 197 l 1
 268 -10 l 1
 211 -10 l 1
 211 197 l 1
 41 197 l 1
 41 267 l 1
 211 267 l 1
 211 474 l 1
 268 474 l 1
 268 267 l 1
 438 267 l 1
EndSplineSet
EndChar

StartChar: minus
Encoding: 8722 8722 185
Width: 479
Flags: MW
HStem: 197 70<33 446 33 446>
LayerCount: 2
Fore
SplineSet
446 267 m 1
 446 197 l 1
 33 197 l 1
 33 267 l 1
 446 267 l 1
EndSplineSet
EndChar

StartChar: multiply
Encoding: 215 215 186
Width: 479
Flags: W
LayerCount: 2
Fore
SplineSet
359 427 m 1
 400 377 l 1
 280 231 l 1
 401 84 l 1
 360 34 l 1
 239 181 l 1
 119 35 l 1
 78 84 l 1
 198 231 l 1
 78 377 l 1
 119 426 l 1
 239 281 l 1
 359 427 l 1
EndSplineSet
EndChar

StartChar: divide
Encoding: 247 247 187
Width: 479
Flags: MW
HStem: 0 104<197 282 197 282> 201 70<41 438 41 438> 368 104<197 282 197 282>
VStem: 197 85<0 104 0 104 368 472>
LayerCount: 2
Fore
SplineSet
438 271 m 1
 438 201 l 1
 41 201 l 1
 41 271 l 1
 438 271 l 1
282 104 m 1
 282 0 l 1
 197 0 l 1
 197 104 l 1
 282 104 l 1
282 472 m 1
 282 368 l 1
 197 368 l 1
 197 472 l 1
 282 472 l 1
EndSplineSet
EndChar

StartChar: equal
Encoding: 61 61 188
Width: 479
Flags: MW
HStem: 111 70<41 438 41 438> 283 70<41 438 41 438>
LayerCount: 2
Fore
SplineSet
438 353 m 1
 438 283 l 1
 41 283 l 1
 41 353 l 1
 438 353 l 1
438 181 m 1
 438 111 l 1
 41 111 l 1
 41 181 l 1
 438 181 l 1
EndSplineSet
EndChar

StartChar: trademark
Encoding: 8482 8482 189
Width: 820
Flags: MW
HStem: 674 55<52 178 52 359 234 359 234 234>
VStem: 178 56<292 674 292 674> 402 55<292 633 292 729> 715 55<292 633 633 633>
LayerCount: 2
Fore
SplineSet
234 674 m 1
 234 292 l 1
 178 292 l 1
 178 674 l 1
 52 674 l 1
 52 729 l 1
 359 729 l 1
 359 674 l 1
 234 674 l 1
614 292 m 1
 556 292 l 1
 457 633 l 1
 457 292 l 1
 402 292 l 1
 402 729 l 1
 479 729 l 1
 587 367 l 1
 696 729 l 1
 770 729 l 1
 770 292 l 1
 715 292 l 1
 715 633 l 1
 614 292 l 1
EndSplineSet
EndChar

StartChar: paragraph
Encoding: 182 182 190
Width: 440
Flags: MW
HStem: 665 64<261 329 261 261 381 428 381 381>
VStem: 209 52<-177 259 259 259> 329 52<-177 665 -177 665>
LayerCount: 2
Fore
SplineSet
428 729 m 1
 428 665 l 1
 381 665 l 1
 381 -177 l 1
 329 -177 l 1
 329 665 l 1
 261 665 l 1
 261 -177 l 1
 209 -177 l 1
 209 259 l 1
 162 262 131 276 102 308 c 1
 63 349 39 419 39 489 c 0
 39 624 120 729 223 729 c 2
 428 729 l 1
EndSplineSet
EndChar

StartChar: currency
Encoding: 164 164 191
Width: 456
Flags: W
HStem: 82 85<206.5 240.5> 411 85<207.5 241 207.5 250.5> 504 20<371 371> 509 20<80 80>
VStem: 49 72<268 310> 325 71<270.5 308.5 270.5 322>
LayerCount: 2
Fore
SplineSet
419 116 m 1x6c
 366 57 l 1
 317 118 l 1
 292 94 259 82 222 82 c 0
 191 82 156 94 134 112 c 1
 85 54 l 1
 34 116 l 1
 80 172 l 1
 60 206 49 247 49 289 c 0
 49 331 61 376 80 408 c 1
 29 470 l 1
 80 529 l 1xdc
 131 466 l 1
 133 467 135 469 138 471 c 0
 159 486 192 496 223 496 c 0
 259 496 289 486 316 463 c 1
 371 524 l 1
 423 460 l 1
 371 397 l 1
 387 367 396 327 396 290 c 0
 396 251 386 212 369 178 c 1
 419 116 l 1x6c
222 411 m 0
 165 411 121 358 121 289 c 0
 121 221 166 167 223 167 c 0
 277 167 325 223 325 288 c 0
 325 356 279 411 222 411 c 0
EndSplineSet
EndChar

StartChar: quotesinglbase
Encoding: 8218 8218 192
Width: 182
Flags: MW
HStem: 0 104<54 93 54 130>
VStem: 54 76<0 3 3 104>
LayerCount: 2
Fore
SplineSet
54 104 m 1
 130 104 l 1
 130 3 l 2
 130 -77 103 -123 53 -128 c 1
 53 -90 l 1
 82 -85 94 -58 93 0 c 1
 54 0 l 1
 54 104 l 1
EndSplineSet
EndChar

StartChar: quoteright
Encoding: 8217 8217 193
Width: 182
Flags: MW
HStem: 625 104<53 92 53 129>
VStem: 53 76<497 628 535 628 625 628 628 729>
LayerCount: 2
Fore
SplineSet
53 729 m 1
 129 729 l 1
 129 628 l 2
 129 548 102 502 53 497 c 1
 53 535 l 1
 82 540 93 567 92 625 c 1
 53 625 l 1
 53 729 l 1
EndSplineSet
EndChar

StartChar: braceleft
Encoding: 123 123 194
Width: 274
Flags: MW
HStem: 709 20<188 226 226 226>
VStem: 99 63<-80 86 86 101 431 597>
LayerCount: 2
Fore
SplineSet
226 729 m 1
 226 664 l 1
 213 664 l 2
 174 664 162 649 162 597 c 2
 162 416 l 2
 162 324 145 284 95 259 c 1
 141 233 162 184 162 101 c 2
 162 -80 l 2
 162 -132 173 -147 213 -147 c 2
 226 -147 l 1
 226 -212 l 1
 188 -212 l 2
 132 -212 99 -163 99 -80 c 2
 99 86 l 2
 99 179 84 212 35 224 c 1
 35 293 l 1
 84 305 99 338 99 431 c 2
 99 597 l 2
 99 680 132 729 188 729 c 2
 226 729 l 1
EndSplineSet
EndChar

StartChar: braceright
Encoding: 125 125 195
Width: 274
Flags: MW
HStem: 709 20<24 63 63 91.5>
VStem: 90 63<-80 86 416 431 431 597>
LayerCount: 2
Fore
SplineSet
24 -212 m 1
 24 -147 l 1
 37 -147 l 2
 78 -147 90 -132 90 -80 c 2
 90 101 l 2
 90 183 111 233 157 258 c 1
 111 284 90 334 90 416 c 2
 90 597 l 2
 90 649 78 664 37 664 c 2
 24 664 l 1
 24 729 l 1
 63 729 l 2
 120 729 153 681 153 597 c 2
 153 431 l 2
 153 338 168 305 215 293 c 1
 215 224 l 1
 168 212 153 178 153 86 c 2
 153 -80 l 2
 153 -164 120 -212 63 -212 c 2
 24 -212 l 1
EndSplineSet
EndChar

StartChar: ordfeminine
Encoding: 170 170 196
Width: 303
Flags: W
HStem: 303 51<35 262 35 262> 399 47<233 266.5> 399 52<109.5 131> 690 52<125.5 162>
VStem: 30 48<482.5 514 482.5 516> 199 47<517 568 568 568 633 646 646 648>
LayerCount: 2
Fore
SplineSet
262 354 m 1xdc
 262 303 l 1
 35 303 l 1
 35 354 l 1
 262 354 l 1xdc
273 449 m 1
 273 405 l 1
 262 400 257 399 247 399 c 0x4c
 219 399 207 411 201 442 c 1
 174 413 147 399 115 399 c 0x2c
 63 399 30 436 30 495 c 0
 30 537 47 568 79 583 c 0
 92 589 126 597 159 600 c 0
 190 603 199 611 199 633 c 2
 199 646 l 2
 199 675 180 690 144 690 c 0
 107 690 94 676 88 634 c 1
 40 634 l 1
 41 705 78 742 145 742 c 0
 213 742 246 711 246 648 c 2
 246 469 l 2
 246 454 253 446 265 446 c 0
 268 446 270 447 273 449 c 1
199 517 m 2x2c
 199 568 l 1
 187 562 177 560 137 552 c 1
 94 545 78 530 78 498 c 0
 78 467 94 451 125 451 c 0
 165 451 199 481 199 517 c 2x2c
EndSplineSet
EndChar

StartChar: ordmasculine
Encoding: 186 186 197
Width: 299
Flags: MW
HStem: 303 51<42 258 42 258> 399 52<127.5 170.5 127.5 186> 690 52<127.5 171>
VStem: 33 48<533 608.5 533 625.5> 218 48<532 607.5>
LayerCount: 2
Fore
SplineSet
258 354 m 1
 258 303 l 1
 42 303 l 1
 42 354 l 1
 258 354 l 1
149 742 m 0
 224 742 266 680 266 568 c 0
 266 462 223 399 149 399 c 0
 75 399 33 461 33 571 c 0
 33 680 75 742 149 742 c 0
149 690 m 0
 106 690 81 646 81 571 c 0
 81 495 106 451 149 451 c 0
 192 451 218 495 218 569 c 0
 218 646 193 690 149 690 c 0
EndSplineSet
EndChar

StartChar: plusminus
Encoding: 177 177 198
Width: 479
Flags: MW
HStem: -11 70<41 438 41 438> 346 70<41 211 41 211 268 438 41 268>
VStem: 211 57<139 346 139 346 416 623>
LayerCount: 2
Fore
SplineSet
438 416 m 1
 438 346 l 1
 268 346 l 1
 268 139 l 1
 211 139 l 1
 211 346 l 1
 41 346 l 1
 41 416 l 1
 211 416 l 1
 211 623 l 1
 268 623 l 1
 268 416 l 1
 438 416 l 1
438 59 m 1
 438 -11 l 1
 41 -11 l 1
 41 59 l 1
 438 59 l 1
EndSplineSet
EndChar

StartChar: onehalf
Encoding: 189 189 199
Width: 684
Flags: MW
HStem: -20 20 0 58<482 670 482 670> 372 53<537.5 571>
VStem: 111 51<284 580 580 580> 620 52<281 319.5>
LayerCount: 2
Fore
SplineSet
111 580 m 1xf8
 30 580 l 1
 30 626 l 1
 42 627 l 1
 101 634 112 645 127 709 c 1
 162 709 l 1
 162 284 l 1
 111 284 l 1
 111 580 l 1xf8
488 709 m 1
 535 709 l 1
 164 -20 l 1
 117 -20 l 1
 488 709 l 1
670 58 m 1
 670 0 l 1
 421 0 l 1
 425 97 447 136 525 187 c 2
 573 218 l 2
 605 239 620 264 620 298 c 0
 620 341 591 372 551 372 c 0
 524 372 500 357 489 331 c 0
 484 318 481 302 480 273 c 1
 429 273 l 1
 431 376 471 425 553 425 c 0
 623 425 672 374 672 299 c 0
 672 245 646 202 594 170 c 2
 542 138 l 1
 507 115 492 95 482 58 c 1
 670 58 l 1
EndSplineSet
EndChar

StartChar: onequarter
Encoding: 188 188 200
Width: 684
Flags: MW
HStem: -20 20 100 53<462 568 462 568 414 568 462 619 619 674>
VStem: 109 51<284 580 580 580> 568 51<0 100 0 100 153 323 323 323>
LayerCount: 2
Fore
SplineSet
109 580 m 1
 28 580 l 1
 28 626 l 1
 40 627 l 1
 99 634 110 645 125 709 c 1
 160 709 l 1
 160 284 l 1
 109 284 l 1
 109 580 l 1
505 709 m 1
 553 709 l 1
 182 -20 l 1
 135 -20 l 1
 505 709 l 1
568 100 m 1
 414 100 l 1
 414 159 l 1
 581 425 l 1
 619 425 l 1
 619 153 l 1
 674 153 l 1
 674 100 l 1
 619 100 l 1
 619 0 l 1
 568 0 l 1
 568 100 l 1
568 153 m 1
 568 323 l 1
 462 153 l 1
 568 153 l 1
EndSplineSet
EndChar

StartChar: threequarters
Encoding: 190 190 201
Width: 684
Flags: W
HStem: -20 20 100 53<472 578 472 578 424 578 472 629 629 683> 270 53<101.5 150 101.5 163.5> 656 53<112 145.5>
VStem: 188 52<569.5 609.5> 199 52<378 428.5> 578 51<0 100 0 100 153 323 323 323>
LayerCount: 2
Fore
SplineSet
98 476 m 1xf4
 98 527 l 1
 169 527 188 540 188 588 c 0
 188 631 165 656 126 656 c 0
 98 656 76 642 66 619 c 0
 61 607 59 594 59 567 c 1
 8 567 l 1
 9 660 49 709 126 709 c 0
 197 709 240 663 240 589 c 0xfa
 240 550 224 521 193 504 c 1
 233 488 251 456 251 404 c 0
 251 322 202 270 125 270 c 0
 45 270 3 318 0 412 c 1
 51 412 l 1
 54 349 76 323 127 323 c 0
 173 323 199 352 199 404 c 0
 199 453 175 476 124 476 c 2
 105 476 l 1
 98 476 l 1xf4
523 709 m 1
 570 709 l 1
 200 -20 l 1
 152 -20 l 1
 523 709 l 1
578 100 m 1
 424 100 l 1
 424 159 l 1
 591 425 l 1
 629 425 l 1
 629 153 l 1
 683 153 l 1
 683 100 l 1
 629 100 l 1
 629 0 l 1
 578 0 l 1
 578 100 l 1
578 153 m 1
 578 323 l 1
 472 153 l 1
 578 153 l 1
EndSplineSet
EndChar

StartChar: fraction
Encoding: 8260 8260 202
Width: 137
Flags: MW
HStem: -20 20
LayerCount: 2
Fore
SplineSet
228 709 m 1
 275 709 l 1
 -95 -20 l 1
 -143 -20 l 1
 228 709 l 1
EndSplineSet
EndChar

StartChar: percent
Encoding: 37 37 203
Width: 729
Flags: W
HStem: -20 20 -19 70<542 587.5 542 603> 252 70<541.5 588> 343 70<141 186.5 141 202> 615 70<141 187>
VStem: 24 57<486 542 486 561> 247 57<485.5 541.5> 425 57<123.5 180 123.5 199> 648 57<123 178.5>
LayerCount: 2
Fore
SplineSet
164 685 m 0xbf80
 242 685 304 608 304 512 c 0
 304 420 240 343 164 343 c 0
 87 343 24 420 24 514 c 0
 24 608 87 685 164 685 c 0xbf80
164 615 m 0
 118 615 81 570 81 514 c 0
 81 458 118 413 164 413 c 0
 209 413 247 458 247 513 c 0
 247 570 210 615 164 615 c 0
499 709 m 1
 554 709 l 1
 230 -20 l 1
 175 -20 l 1
 499 709 l 1
565 322 m 0
 643 322 705 246 705 150 c 0
 705 58 641 -19 565 -19 c 0x6780
 488 -19 425 57 425 152 c 0
 425 246 488 322 565 322 c 0
565 252 m 0
 518 252 482 208 482 152 c 0
 482 95 519 51 565 51 c 0
 610 51 648 96 648 150 c 0
 648 207 611 252 565 252 c 0
EndSplineSet
EndChar

StartChar: perthousand
Encoding: 8240 8240 204
Width: 820
Flags: W
HStem: -22 60<375.5 416 375.5 429.5 670.5 711> 219 60<375.5 416.5 670.5 711.5> 427 60<109.5 150 109.5 163.5> 668 60<109 150> 718 20<403 457 457 457>
VStem: 7 48<553 602.5 553 619.5> 204 48<552.5 602.5> 274 48<103.5 154 103.5 170.5> 471 48<104 152.5> 569 48<104 153.5 104 170.5> 766 48<103.5 153>
LayerCount: 2
Fore
SplineSet
129 728 m 0x37e0
 198 728 252 661 252 576 c 0
 252 494 197 427 130 427 c 0
 62 427 7 495 7 578 c 0
 7 661 62 728 129 728 c 0x37e0
129 668 m 0
 89 668 55 627 55 578 c 0
 55 528 89 487 130 487 c 0
 170 487 204 528 204 577 c 0
 204 628 171 668 129 668 c 0
403 738 m 1xcfe0
 457 738 l 1
 133 -20 l 1
 79 -20 l 1
 403 738 l 1xcfe0
396 279 m 0
 464 279 519 211 519 127 c 0
 519 46 463 -22 396 -22 c 0
 328 -22 274 45 274 129 c 0
 274 212 328 279 396 279 c 0
396 219 m 0
 355 219 322 179 322 129 c 0
 322 78 355 38 396 38 c 0
 436 38 471 80 471 128 c 0
 471 177 437 219 396 219 c 0
691 279 m 0
 760 279 814 212 814 127 c 0
 814 46 758 -22 691 -22 c 0
 623 -22 569 45 569 129 c 0
 569 212 623 279 691 279 c 0
691 219 m 0
 650 219 617 178 617 129 c 0
 617 79 650 38 691 38 c 0
 731 38 766 79 766 128 c 0
 766 178 732 219 691 219 c 0
EndSplineSet
EndChar

StartChar: backslash
Encoding: 92 92 205
Width: 228
Flags: MW
HStem: -20 20 709 20<-7 38 38 38>
LayerCount: 2
Fore
SplineSet
38 729 m 1
 232 -20 l 1
 187 -20 l 1
 -7 729 l 1
 38 729 l 1
EndSplineSet
EndChar

StartChar: dieresis
Encoding: 168 168 206
Width: 273
Flags: MW
HStem: 612 103<25 110 25 110 25 158 158 243>
VStem: 25 85<612 715 612 715> 158 85<612 715 612 715>
LayerCount: 2
Fore
SplineSet
110 715 m 1
 110 612 l 1
 25 612 l 1
 25 715 l 1
 110 715 l 1
243 715 m 1
 243 612 l 1
 158 612 l 1
 158 715 l 1
 243 715 l 1
EndSplineSet
EndChar

StartChar: dotaccent
Encoding: 729 729 207
Width: 273
Flags: MW
HStem: 612 104<94 179 94 179>
VStem: 94 85<612 716 612 716>
LayerCount: 2
Fore
SplineSet
179 716 m 1
 179 612 l 1
 94 612 l 1
 94 716 l 1
 179 716 l 1
EndSplineSet
EndChar

StartChar: ring
Encoding: 730 730 208
Width: 273
Flags: MW
HStem: 579 44<127 147 127 157> 710 44<126.5 148>
VStem: 65 36<654.5 679.5 654.5 691> 173 36<654 679.5>
LayerCount: 2
Fore
SplineSet
137 754 m 0
 178 754 209 717 209 666 c 0
 209 618 177 579 137 579 c 0
 98 579 65 619 65 667 c 0
 65 715 97 754 137 754 c 0
137 710 m 0
 116 710 101 692 101 667 c 0
 101 642 117 623 137 623 c 0
 157 623 173 642 173 666 c 0
 173 693 159 710 137 710 c 0
EndSplineSet
EndChar

StartChar: acute
Encoding: 180 180 209
Width: 273
Flags: MW
HStem: 720 20<154 246 246 246>
LayerCount: 2
Fore
SplineSet
154 740 m 1
 246 740 l 1
 124 592 l 1
 75 592 l 1
 154 740 l 1
EndSplineSet
EndChar

StartChar: grave
Encoding: 96 96 210
Width: 273
Flags: MW
HStem: 720 20<18 110 110 110>
LayerCount: 2
Fore
SplineSet
110 740 m 1
 189 592 l 1
 140 592 l 1
 18 740 l 1
 110 740 l 1
EndSplineSet
EndChar

StartChar: circumflex
Encoding: 710 710 211
Width: 273
Flags: MW
HStem: 721 20<95 172 172 172>
LayerCount: 2
Fore
SplineSet
95 741 m 1
 172 741 l 1
 251 591 l 1
 199 591 l 1
 133 687 l 1
 69 591 l 1
 16 591 l 1
 95 741 l 1
EndSplineSet
EndChar

StartChar: caron
Encoding: 711 711 212
Width: 273
Flags: MW
HStem: 721 20<16 68 68 68 199 251 251 251>
LayerCount: 2
Fore
SplineSet
173 591 m 1
 95 591 l 1
 16 741 l 1
 68 741 l 1
 134 645 l 1
 199 741 l 1
 251 741 l 1
 173 591 l 1
EndSplineSet
EndChar

StartChar: breve
Encoding: 728 728 213
Width: 273
Flags: MW
HStem: 597 69<113 157.5 113 172> 712 20<12 60 60 60 211 259 259 259>
LayerCount: 2
Fore
SplineSet
12 732 m 1
 60 732 l 1
 64 688 90 666 136 666 c 0
 179 666 207 690 211 732 c 1
 259 732 l 1
 253 644 210 597 134 597 c 0
 87 597 48 619 27 657 c 0
 17 676 13 696 12 732 c 1
EndSplineSet
EndChar

StartChar: tilde
Encoding: 732 732 214
Width: 273
Flags: W
HStem: 613 68<180 191.5 178 208.5> 650 67<72 83 56 84>
LayerCount: 2
Fore
SplineSet
214 717 m 1x80
 262 717 l 1
 253 647 229 613 188 613 c 0x80
 172 613 169 614 119 638 c 0
 96 648 90 650 78 650 c 0
 66 650 57 638 51 614 c 1
 4 614 l 1
 14 681 38 717 74 717 c 0x40
 92 717 97 715 132 698 c 0
 153 687 172 681 184 681 c 0
 199 681 208 692 214 717 c 1x80
EndSplineSet
EndChar

StartChar: hungarumlaut
Encoding: 733 733 215
Width: 273
Flags: MW
HStem: 720 20<50 142 142 142 193 285 285 285>
LayerCount: 2
Fore
SplineSet
50 740 m 1
 142 740 l 1
 20 590 l 1
 -29 590 l 1
 50 740 l 1
193 740 m 1
 285 740 l 1
 163 590 l 1
 114 590 l 1
 193 740 l 1
EndSplineSet
EndChar

StartChar: cedilla
Encoding: 184 184 216
Width: 273
Flags: MW
HStem: -214 41<119 143 119 166>
VStem: 173 62<-141.5 -115.5>
LayerCount: 2
Fore
SplineSet
135 0 m 1
 167 0 l 1
 148 -56 l 1
 158 -54 163 -54 170 -54 c 0
 212 -54 235 -77 235 -121 c 0
 235 -179 197 -214 135 -214 c 0
 102 -214 83 -208 32 -181 c 1
 49 -140 l 1
 57 -144 l 1
 94 -168 108 -173 130 -173 c 0
 156 -173 173 -155 173 -128 c 0
 173 -103 161 -91 136 -91 c 0
 126 -91 121 -92 111 -98 c 1
 101 -92 l 1
 135 0 l 1
EndSplineSet
EndChar

StartChar: ogonek
Encoding: 731 731 217
Width: 273
Flags: MW
HStem: -206 45<148 162>
VStem: 47 60<-123.5 -88>
LayerCount: 2
Fore
SplineSet
127 0 m 1
 184 0 l 1
 124 -41 107 -64 107 -106 c 0
 107 -141 128 -161 166 -161 c 0
 181 -161 205 -156 218 -150 c 1
 218 -195 l 1
 201 -200 168 -206 156 -206 c 0
 140 -206 117 -200 99 -192 c 0
 65 -177 47 -150 47 -112 c 0
 47 -64 77 -22 127 0 c 1
EndSplineSet
EndChar

StartChar: macron
Encoding: 175 175 218
Width: 273
Flags: MW
HStem: 631 70<23 248 23 248>
LayerCount: 2
Fore
SplineSet
248 701 m 1
 248 631 l 1
 23 631 l 1
 23 701 l 1
 248 701 l 1
EndSplineSet
EndChar

StartChar: copyright
Encoding: 169 169 219
Width: 604
Flags: MW
HStem: -22 62<229.5 372 229.5 387> 126 62<294.5 330> 530 62<276 329.5> 680 62<231 373.5>
VStem: -11 56<272.5 448.5 272.5 465.5> 148 57<332 411 332 427.5> 559 56<270.5 449.5>
LayerCount: 2
Fore
SplineSet
446 437 m 1
 387 437 l 1
 374 503 351 530 308 530 c 0
 244 530 205 464 205 358 c 0
 205 306 215 265 234 234 c 0
 251 207 281 188 308 188 c 0
 353 188 383 232 394 312 c 1
 452 312 l 1
 442 249 434 221 417 193 c 0
 389 148 353 126 307 126 c 0
 213 126 148 221 148 357 c 0
 148 498 213 592 309 592 c 0
 383 592 426 543 446 437 c 1
302 742 m 0
 476 742 615 572 615 361 c 0
 615 146 476 -22 298 -22 c 0
 130 -22 -11 152 -11 360 c 0
 -11 571 129 742 302 742 c 0
302 680 m 0
 160 680 45 537 45 360 c 0
 45 185 160 40 299 40 c 0
 445 40 559 180 559 361 c 0
 559 538 445 680 302 680 c 0
EndSplineSet
EndChar

StartChar: registered
Encoding: 174 174 220
Width: 604
Flags: MW
HStem: -22 62<229.5 372 229.5 387> 325 63<222 328 222 328 328 332> 522 63<222 328 222 222> 680 62<231 373.5>
VStem: -11 56<272.5 448.5 272.5 465.5> 165 57<140 325 388 522> 389 60<436 478.5> 559 56<270.5 449.5>
LayerCount: 2
Fore
SplineSet
222 325 m 1
 222 140 l 1
 165 140 l 1
 165 585 l 1
 333 585 l 2
 411 585 449 544 449 460 c 0
 449 412 440 391 405 360 c 1
 435 336 441 319 442 248 c 0
 443 190 446 178 461 165 c 1
 461 140 l 1
 396 140 l 1
 389 159 383 192 383 216 c 2
 384 257 l 1
 384 306 369 325 332 325 c 2
 222 325 l 1
222 388 m 1
 328 388 l 2
 371 388 389 408 389 455 c 0
 389 502 371 522 328 522 c 2
 222 522 l 1
 222 388 l 1
302 742 m 0
 476 742 615 572 615 361 c 0
 615 146 476 -22 298 -22 c 0
 130 -22 -11 152 -11 360 c 0
 -11 571 129 742 302 742 c 0
302 680 m 0
 160 680 45 537 45 360 c 0
 45 185 160 40 299 40 c 0
 445 40 559 180 559 361 c 0
 559 538 445 680 302 680 c 0
EndSplineSet
EndChar

StartChar: bullet
Encoding: 8226 8226 222
Width: 333
Flags: MW
HStem: 517 20<144 192>
LayerCount: 2
Fore
SplineSet
169 537 m 0
 215 537 248 524 276 494 c 0
 304 464 324 418 324 383 c 0
 324 347 304 300 276 271 c 0
 248 242 207 225 167 225 c 0
 82 225 12 296 12 382 c 0
 12 424 29 465 58 494 c 0
 89 525 119 537 169 537 c 0
EndSplineSet
EndChar

StartChar: lozenge
Encoding: 9674 9674 223
Width: 386
Flags: MW
HStem: 0 20 724 20<165 216 216 216>
LayerCount: 2
Fore
SplineSet
216 744 m 1
 374 372 l 1
 216 0 l 1
 165 0 l 1
 8 372 l 1
 165 744 l 1
 216 744 l 1
191 60 m 1
 323 372 l 1
 191 684 l 1
 60 372 l 1
 191 60 l 1
EndSplineSet
EndChar

StartChar: increment
Encoding: 8710 8710 224
Width: 502
Flags: MW
HStem: 0 82<77 424 77 535> 709 20<209 291 291 291>
LayerCount: 2
Fore
SplineSet
-32 0 m 1
 209 729 l 1
 291 729 l 1
 535 0 l 1
 -32 0 l 1
251 616 m 1
 77 82 l 1
 424 82 l 1
 251 616 l 1
EndSplineSet
EndChar

StartChar: notequal
Encoding: 8800 8800 225
Width: 450
Flags: MW
HStem: 111 70<27 129 27 162 27 184 216 424> 283 70<27 208 27 241 27 263 295 424>
LayerCount: 2
Fore
SplineSet
129 111 m 1
 27 111 l 1
 27 181 l 1
 162 181 l 1
 208 283 l 1
 27 283 l 1
 27 353 l 1
 241 353 l 1
 303 486 l 1
 344 458 l 1
 295 353 l 1
 424 353 l 1
 424 283 l 1
 263 283 l 1
 216 181 l 1
 424 181 l 1
 424 111 l 1
 184 111 l 1
 122 -25 l 1
 80 4 l 1
 129 111 l 1
EndSplineSet
EndChar

StartChar: radical
Encoding: 8730 8730 226
Width: 372
Flags: W
LayerCount: 2
Fore
SplineSet
377 913 m 1
 406 908 l 1
 282 -36 l 1
 84 461 l 1
 7 415 l 1
 -8 448 l 1
 113 521 l 1
 272 125 l 1
 377 913 l 1
EndSplineSet
EndChar

StartChar: lessequal
Encoding: 8804 8804 227
Width: 450
Flags: MW
HStem: -11 67<23 424 23 424>
LayerCount: 2
Fore
SplineSet
424 56 m 1
 424 -11 l 1
 23 -11 l 1
 23 56 l 1
 424 56 l 1
23 363 m 1
 23 432 l 1
 424 639 l 1
 424 560 l 1
 101 399 l 1
 424 235 l 1
 424 156 l 1
 23 363 l 1
EndSplineSet
EndChar

StartChar: greaterequal
Encoding: 8805 8805 228
Width: 450
Flags: MW
HStem: -11 67<23 424 23 424>
LayerCount: 2
Fore
SplineSet
424 56 m 1
 424 -11 l 1
 23 -11 l 1
 23 56 l 1
 424 56 l 1
424 432 m 1
 424 363 l 1
 23 156 l 1
 23 235 l 1
 346 396 l 1
 23 560 l 1
 23 639 l 1
 424 432 l 1
EndSplineSet
EndChar

StartChar: product
Encoding: 8719 8719 229
Width: 785
Flags: MW
HStem: -281 75<41 130 211 303 41 130 481 574 655 744> 769 75<41 130 41 744 211 574 211 211 655 744 655 655>
VStem: 130 81<-206 769 -206 769> 574 81<-206 769 -206 769>
LayerCount: 2
Fore
SplineSet
41 844 m 1
 744 844 l 1
 744 769 l 1
 655 769 l 1
 655 -206 l 1
 744 -206 l 1
 744 -281 l 1
 481 -281 l 1
 481 -206 l 1
 574 -206 l 1
 574 769 l 1
 211 769 l 1
 211 -206 l 1
 303 -206 l 1
 303 -281 l 1
 41 -281 l 1
 41 -206 l 1
 130 -206 l 1
 130 769 l 1
 41 769 l 1
 41 844 l 1
EndSplineSet
EndChar

StartChar: summation
Encoding: 8721 8721 230
Width: 492
Flags: MW
HStem: -134 72<97 372 97 433> 673 73<97 365 97 97>
LayerCount: 2
Fore
SplineSet
427 746 m 1
 427 531 l 1
 369 531 l 1
 365 673 l 1
 97 673 l 1
 264 324 l 1
 97 -62 l 1
 372 -62 l 1
 374 81 l 1
 433 81 l 1
 433 -134 l 1
 24 -134 l 1
 24 -63 l 1
 192 323 l 1
 24 676 l 1
 24 746 l 1
 427 746 l 1
EndSplineSet
EndChar

StartChar: partialdiff
Encoding: 8706 8706 231
Width: 390
Flags: MW
HStem: -15 32<134.5 180 134.5 199> 367 41<171.5 195.5 153 222> 703 47<156 186.5 135.5 190>
VStem: 13 71<124.5 211.5> 305 65<437 450.5 349.5 493>
LayerCount: 2
Fore
SplineSet
78 670 m 1
 46 722 l 1
 79 740 117 750 154 750 c 0
 219 750 282 706 322 631 c 0
 354 572 370 496 370 405 c 0
 370 294 347 168 314 98 c 0
 279 24 229 -15 169 -15 c 0
 81 -15 13 70 13 179 c 0
 13 244 35 310 74 358 c 0
 101 392 133 408 173 408 c 0
 218 408 240 396 297 343 c 1
 303 396 305 419 305 455 c 0
 305 531 288 605 261 651 c 0
 241 685 209 703 171 703 c 0
 141 703 132 700 85 674 c 2
 78 670 l 1
291 304 m 1
 270 345 240 367 204 367 c 0
 139 367 84 271 84 155 c 0
 84 69 111 17 158 17 c 0
 202 17 240 61 262 139 c 0
 274 183 278 206 291 304 c 1
EndSplineSet
EndChar

StartChar: pi
Encoding: 960 960 232
Width: 651
Flags: MW
HStem: 0 20 466 73<31 115 31 620 196 196 196 456 537 537 537 620>
VStem: 115 81<0 466 0 466> 456 81<0 466 0 466>
LayerCount: 2
Fore
SplineSet
115 0 m 1
 115 466 l 1
 31 466 l 1
 31 539 l 1
 620 539 l 1
 620 466 l 1
 537 466 l 1
 537 0 l 1
 456 0 l 1
 456 466 l 1
 196 466 l 1
 196 0 l 1
 115 0 l 1
EndSplineSet
EndChar

StartChar: Omega
Encoding: 937 937 233
Width: 750
Flags: MW
HStem: 0 73<32 235 32 235 32 326 516 718> 695 73<332 410>
VStem: 32 83<335.5 464.5> 636 82<355.5 444.5>
LayerCount: 2
Fore
SplineSet
32 0 m 1
 32 73 l 1
 235 73 l 1
 98 153 32 262 32 409 c 0
 32 520 73 613 153 684 c 0
 217 741 289 768 375 768 c 0
 461 768 534 741 597 684 c 0
 677 613 718 520 718 409 c 0
 718 263 652 153 516 73 c 1
 718 73 l 1
 718 0 l 1
 425 0 l 1
 425 66 l 1
 486 100 518 125 551 164 c 0
 606 229 636 311 636 400 c 0
 636 489 607 562 546 622 c 1
 497 672 443 695 377 695 c 0
 227 695 115 569 115 399 c 0
 115 254 184 145 326 66 c 1
 326 0 l 1
 32 0 l 1
EndSplineSet
EndChar

StartChar: less
Encoding: 60 60 234
Width: 500
Flags: W
LayerCount: 2
Fore
SplineSet
494 642 m 1
 494 561 l 1
 93 379 l 1
 494 196 l 1
 494 116 l 1
 6 344 l 1
 6 414 l 1
 494 642 l 1
EndSplineSet
EndChar

StartChar: greater
Encoding: 62 62 235
Width: 500
Flags: W
LayerCount: 2
Fore
SplineSet
7 116 m 1
 7 196 l 1
 408 379 l 1
 7 561 l 1
 7 641 l 1
 494 413 l 1
 494 343 l 1
 7 116 l 1
EndSplineSet
EndChar

StartChar: logicalnot
Encoding: 172 172 236
Width: 479
Flags: MW
HStem: 305 70<33 389 33 446>
VStem: 389 57<86 305 305 305>
LayerCount: 2
Fore
SplineSet
33 375 m 1
 446 375 l 1
 446 86 l 1
 389 86 l 1
 389 305 l 1
 33 305 l 1
 33 375 l 1
EndSplineSet
EndChar

StartChar: asciicircum
Encoding: 94 94 237
Width: 500
Flags: W
LayerCount: 2
Fore
SplineSet
85 411 m 1
 -2 411 l 1
 197 752 l 1
 303 752 l 1
 503 411 l 1
 415 411 l 1
 250 688 l 1
 85 411 l 1
EndSplineSet
EndChar

StartChar: bar
Encoding: 124 124 238
Width: 250
Flags: MW
HStem: 730 20<85 166 166 166>
VStem: 85 81<-187 750 -187 750>
LayerCount: 2
Fore
SplineSet
85 750 m 1
 166 750 l 1
 166 -187 l 1
 85 -187 l 1
 85 750 l 1
EndSplineSet
EndChar

StartChar: brokenbar
Encoding: 166 166 239
Width: 250
Flags: MW
HStem: 730 20<85 166 166 166>
VStem: 85 81<-187 173 -187 173 376 750>
LayerCount: 2
Fore
SplineSet
85 750 m 1
 166 750 l 1
 166 376 l 1
 85 376 l 1
 85 750 l 1
85 173 m 1
 166 173 l 1
 166 -187 l 1
 85 -187 l 1
 85 173 l 1
EndSplineSet
EndChar

StartChar: underscore
Encoding: 95 95 240
Width: 500
Flags: MW
HStem: -148 74<-31 532 -31 532>
LayerCount: 2
Fore
SplineSet
-31 -74 m 1
 532 -74 l 1
 532 -148 l 1
 -31 -148 l 1
 -31 -74 l 1
EndSplineSet
EndChar

StartChar: asciitilde
Encoding: 126 126 241
Width: 479
Flags: MW
HStem: 0 82 0 82 181 73<322.5 339 322.5 346> 181 73<322.5 339 322.5 346> 249 73<137 164.5> 333 82 333 82 647 82 647 82
VStem: 50 76 50 76 394 76 394 76
LayerCount: 2
Fore
SplineSet
388 305 m 1x20
 429 267 l 1
 395 206 366 181 326 181 c 0x5528
 301 181 280 189 243 214 c 0
 204 240 179 249 150 249 c 0
 124 249 108 236 89 200 c 1
 50 236 l 1
 78 297 108 322 152 322 c 0x8ad0
 179 322 199 315 267 277 c 0
 295 262 316 254 329 254 c 0
 349 254 365 268 388 305 c 1x20
EndSplineSet
EndChar

StartChar: mu
Encoding: 956 956 242
Width: 516
Flags: W
HStem: -7 59<245.5 272 245.5 278>
VStem: 84 75<-180 56 -180 555> 84 81<180.5 211 211 555> 352 81<211 555 0 555> 358 75<0 56 56 56>
LayerCount: 2
Fore
SplineSet
84 555 m 1xa0
 165 555 l 1
 165 211 l 2
 165 150 171 120 189 93 c 0
 205 68 232 52 259 52 c 0
 285 52 312 68 328 93 c 0
 346 121 352 150 352 211 c 2
 352 555 l 1
 433 555 l 1
 433 0 l 1xb0
 358 0 l 1
 358 56 l 1
 326 11 297 -7 259 -7 c 0
 220 -7 191 11 159 56 c 1
 159 -180 l 1xc8
 84 -180 l 1
 84 555 l 1xa0
EndSplineSet
EndChar
